<?xml version="1.0" encoding="UTF-8"?>
<svg xmlns="http://www.w3.org/2000/svg" xmlns:xlink="http://www.w3.org/1999/xlink" width="200px" height="48px" viewBox="0 0 200 48" version="1.1">
<g id="surface1">
<path style=" stroke:none;fill-rule:nonzero;fill:rgb(0%,0%,0%);fill-opacity:1;" d="M 133.800781 48.101562 C 89.351562 48.101562 44.949219 48.097656 0.550781 48.109375 C 0.175781 48.109375 0.0898438 48.023438 0.0898438 47.648438 C 0.101562 31.949219 0.101562 16.25 0.0898438 0.550781 C 0.0898438 0.175781 0.175781 0.0898438 0.550781 0.0898438 C 66.917969 0.101562 133.285156 0.101562 199.648438 0.0898438 C 200.023438 0.0898438 200.109375 0.175781 200.109375 0.550781 C 200.097656 16.25 200.097656 31.949219 200.109375 47.648438 C 200.109375 48.023438 200.023438 48.109375 199.648438 48.109375 C 177.714844 48.097656 155.785156 48.101562 133.800781 48.101562 Z M 133.800781 48.101562 "/>
<path style=" stroke:none;fill-rule:nonzero;fill:rgb(50.588235%,50.980392%,52.156863%);fill-opacity:1;" d="M 48.777344 31.878906 C 50.007812 31.898438 51.207031 31.84375 52.402344 31.914062 C 53.523438 31.980469 54.625 32.199219 55.453125 33.09375 C 55.96875 33.652344 56.210938 34.335938 56.292969 35.0625 C 56.515625 36.984375 55.578125 38.292969 53.984375 39.203125 C 52.914062 39.8125 51.738281 40.085938 50.511719 40.214844 C 49.867188 40.285156 49.230469 40.285156 48.539062 40.292969 C 48.351562 40.214844 48.199219 40.269531 48.019531 40.222656 C 46.632812 40.179688 45.378906 39.894531 44.351562 38.917969 C 43.972656 38.554688 43.839844 38.078125 43.71875 37.621094 C 43.40625 36.445312 44.0625 34.871094 45.070312 34.195312 C 45.570312 33.863281 45.539062 33.894531 45.117188 33.464844 C 44.484375 32.816406 44.261719 32.007812 44.429688 31.121094 C 44.585938 30.3125 44.960938 29.636719 45.671875 29.167969 C 45.84375 29.054688 45.972656 28.953125 45.675781 28.710938 C 44.023438 27.355469 43.808594 25.21875 44.570312 23.496094 C 45.1875 22.09375 46.433594 21.351562 47.890625 21.007812 C 48.492188 20.867188 49.109375 20.765625 49.738281 20.796875 C 51.027344 20.855469 52.253906 21.117188 53.320312 21.878906 C 53.597656 22.078125 53.765625 22.089844 54.015625 21.839844 C 54.566406 21.285156 55.261719 21.039062 56.035156 21 C 56.121094 20.996094 56.214844 21.023438 56.285156 20.996094 C 56.867188 20.75 56.894531 21.132812 56.898438 21.53125 C 56.90625 22.164062 56.898438 22.796875 56.902344 23.429688 C 56.90625 23.753906 56.789062 23.917969 56.4375 23.90625 C 55.921875 23.886719 55.40625 23.898438 54.851562 23.898438 C 55.339844 25.421875 55.21875 26.871094 54.222656 28.105469 C 53.234375 29.328125 51.875 29.886719 50.253906 29.902344 C 49.867188 30 49.519531 29.933594 49.132812 29.921875 C 48.75 29.867188 48.410156 29.929688 48.0625 29.820312 C 47.628906 29.683594 47.34375 29.96875 47.144531 30.613281 C 47.011719 31.050781 47.210938 31.550781 47.609375 31.679688 C 47.769531 31.734375 47.933594 31.851562 48.167969 31.804688 C 48.378906 31.890625 48.566406 31.828125 48.777344 31.878906 Z M 48.777344 31.878906 "/>
<path style=" stroke:none;fill-rule:nonzero;fill:rgb(50.196078%,50.588235%,52.156863%);fill-opacity:1;" d="M 112.769531 20.976562 C 112.828125 20.996094 112.84375 21 112.863281 21 C 114.308594 20.972656 113.953125 21.121094 114.199219 22.226562 C 114.238281 22.398438 114.28125 22.570312 114.335938 22.792969 C 114.734375 22.34375 115.089844 21.902344 115.566406 21.570312 C 116.226562 21.109375 116.949219 20.851562 117.738281 20.804688 C 118.558594 20.761719 119.355469 20.839844 120.140625 21.15625 C 121.128906 21.554688 121.730469 22.273438 122.09375 23.222656 C 122.390625 24.007812 122.492188 24.835938 122.496094 25.671875 C 122.507812 28.335938 122.492188 31.003906 122.507812 33.667969 C 122.511719 34.011719 122.429688 34.082031 122.082031 34.121094 C 121.453125 34.1875 120.828125 34.175781 120.203125 34.207031 C 119.816406 34.226562 119.464844 34.0625 119.074219 34.089844 C 118.761719 34.113281 118.90625 33.816406 118.90625 33.675781 C 118.898438 31.175781 118.921875 28.675781 118.886719 26.175781 C 118.875 25.433594 118.71875 24.683594 118.039062 24.203125 C 117.203125 23.613281 115.609375 23.996094 115.105469 24.90625 C 114.792969 25.46875 114.574219 26.0625 114.589844 26.761719 C 114.507812 27.4375 114.558594 28.066406 114.554688 28.695312 C 114.542969 30.441406 114.554688 32.183594 114.523438 33.972656 C 113.542969 34.246094 112.578125 34.195312 111.597656 34.144531 C 110.917969 34.105469 110.996094 33.78125 110.996094 33.347656 C 111.003906 29.507812 111 25.664062 111 21.824219 C 111 21 111 21 111.851562 21 C 111.933594 21 112.019531 21 112.144531 21 C 112.363281 20.90625 112.550781 20.964844 112.769531 20.976562 Z M 112.769531 20.976562 "/>
<path style=" stroke:none;fill-rule:nonzero;fill:rgb(50.588235%,50.980392%,52.156863%);fill-opacity:1;" d="M 107.800781 24.113281 C 108.191406 25.078125 108.410156 26.039062 108.402344 27.046875 C 108.394531 28.097656 108.429688 29.136719 108.113281 30.171875 C 107.492188 32.21875 106 33.839844 103.789062 34.191406 C 102.515625 34.394531 101.226562 34.445312 99.984375 34.039062 C 97.835938 33.335938 96.683594 31.75 96.195312 29.605469 C 96.007812 28.777344 95.957031 27.945312 96.003906 27.105469 C 96.109375 25.226562 96.628906 23.503906 98.0625 22.191406 C 98.832031 21.488281 99.777344 21.078125 100.804688 20.90625 C 101.996094 20.703125 103.179688 20.742188 104.351562 21.09375 C 105.664062 21.488281 106.683594 22.246094 107.40625 23.40625 C 107.542969 23.625 107.671875 23.851562 107.800781 24.113281 Z M 107.800781 24.113281 "/>
<path style=" stroke:none;fill-rule:nonzero;fill:rgb(50.196078%,50.588235%,52.156863%);fill-opacity:1;" d="M 67.414062 28.851562 C 67.984375 27.214844 69.195312 26.398438 70.769531 25.996094 C 71.875 25.710938 73 25.828125 74.117188 25.800781 C 74.605469 25.789062 74.691406 25.695312 74.59375 25.210938 C 74.40625 24.292969 73.859375 23.882812 72.871094 23.691406 C 71.632812 23.453125 70.460938 23.699219 69.296875 24.027344 C 68.96875 24.117188 68.851562 24.046875 68.730469 23.789062 C 68.417969 23.136719 68.3125 22.429688 68.191406 21.726562 C 68.15625 21.523438 68.308594 21.453125 68.441406 21.421875 C 69.324219 21.210938 70.199219 20.988281 71.109375 20.878906 C 71.804688 20.796875 72.5 20.765625 73.1875 20.8125 C 74.539062 20.902344 75.816406 21.246094 76.808594 22.261719 C 77.417969 22.886719 77.71875 23.667969 77.90625 24.507812 C 78.039062 25.113281 77.996094 25.722656 77.996094 26.332031 C 78.003906 28.597656 77.996094 30.863281 78.003906 33.128906 C 78.007812 33.476562 77.917969 33.601562 77.550781 33.722656 C 75.636719 34.367188 73.664062 34.390625 71.699219 34.28125 C 70.1875 34.195312 68.769531 33.722656 67.898438 32.335938 C 67.304688 31.394531 67.167969 30.339844 67.378906 29.242188 C 67.402344 29.128906 67.394531 29.007812 67.414062 28.851562 Z M 67.414062 28.851562 "/>
<path style=" stroke:none;fill-rule:nonzero;fill:rgb(98.823529%,77.647059%,4.705882%);fill-opacity:1;" d="M 176.835938 20.886719 C 176.734375 21.007812 176.652344 21.097656 176.542969 21.203125 C 176.171875 21.402344 175.988281 21.132812 175.796875 20.941406 C 174.4375 19.597656 173.082031 18.246094 171.734375 16.886719 C 171.089844 16.238281 170.410156 15.621094 169.800781 14.9375 C 169.25 14.320312 168.632812 13.921875 167.757812 13.976562 C 167.84375 14.117188 167.984375 14.226562 168.105469 14.347656 C 170.464844 16.71875 172.835938 19.074219 175.199219 21.445312 C 175.359375 21.609375 175.550781 21.753906 175.644531 22.015625 C 175.652344 22.078125 175.652344 22.101562 175.632812 22.15625 C 175.496094 22.285156 175.382812 22.386719 175.238281 22.496094 C 174.855469 22.628906 174.691406 22.34375 174.503906 22.15625 C 172.425781 20.085938 170.355469 18.011719 168.28125 15.941406 C 167.71875 15.375 167.144531 14.816406 166.589844 14.242188 C 166.277344 13.917969 165.957031 13.691406 165.476562 13.671875 C 165.175781 13.660156 164.835938 13.660156 164.542969 13.417969 C 162.367188 11.191406 160.164062 9.042969 158.003906 6.851562 C 157.792969 6.632812 157.507812 6.429688 157.675781 6.015625 C 158.070312 5.707031 158.488281 5.589844 158.964844 5.59375 C 160.3125 5.609375 161.664062 5.671875 163.003906 5.582031 C 164.425781 5.484375 165.507812 6.140625 166.566406 6.917969 C 167.1875 7.375 167.734375 7.917969 168.167969 8.601562 C 168.839844 8.722656 169.136719 9.28125 169.539062 9.675781 C 170.601562 10.722656 171.667969 11.773438 172.703125 12.847656 C 172.914062 13.066406 173.214844 13.160156 173.425781 13.429688 C 173.488281 13.582031 173.476562 13.714844 173.394531 13.792969 C 173.003906 14.171875 173.261719 14.417969 173.542969 14.695312 C 174.949219 16.085938 176.347656 17.488281 177.742188 18.894531 C 177.925781 19.074219 178.167969 19.234375 178.128906 19.578125 C 178.011719 19.722656 177.910156 19.835938 177.796875 19.980469 C 177.765625 20.023438 177.746094 20.035156 177.6875 20.050781 C 177.386719 19.996094 177.230469 19.789062 177.054688 19.613281 C 175.535156 18.097656 174.003906 16.59375 172.515625 15.046875 C 172.066406 14.578125 171.570312 14.347656 170.949219 14.320312 C 170.765625 14.308594 170.585938 14.300781 170.390625 14.199219 C 170.332031 14.171875 170.316406 14.15625 170.308594 14.128906 C 170.300781 14.101562 170.300781 14.109375 170.324219 14.167969 C 170.597656 14.261719 170.78125 14.421875 170.960938 14.601562 C 172.789062 16.441406 174.628906 18.273438 176.457031 20.109375 C 176.660156 20.3125 176.953125 20.484375 176.835938 20.886719 Z M 176.835938 20.886719 "/>
<path style=" stroke:none;fill-rule:nonzero;fill:rgb(95.294118%,50.588235%,12.941176%);fill-opacity:1;" d="M 42.222656 23.285156 C 42.261719 23.691406 42.136719 23.832031 41.730469 23.808594 C 41 23.773438 40.265625 23.804688 39.535156 23.796875 C 39.292969 23.796875 39.183594 23.835938 39.148438 24.136719 C 39.054688 24.929688 39.101562 25.722656 39.109375 26.515625 C 39.121094 27.605469 39.03125 28.695312 39.191406 29.785156 C 39.371094 31.007812 40.1875 31.585938 41.40625 31.335938 C 41.644531 31.285156 41.886719 31.320312 42.128906 31.210938 C 42.296875 31.132812 42.449219 31.234375 42.511719 31.472656 C 42.691406 32.164062 42.75 32.851562 42.726562 33.5625 C 42.710938 34.007812 42.441406 33.972656 42.144531 34.03125 C 40.804688 34.304688 39.480469 34.296875 38.167969 33.902344 C 36.5625 33.414062 35.714844 32.078125 35.699219 30.558594 C 35.605469 30.375 35.671875 30.21875 35.628906 30.035156 C 35.609375 28.085938 35.59375 26.171875 35.609375 24.257812 C 35.613281 23.878906 35.515625 23.746094 35.140625 23.792969 C 34.914062 23.824219 34.675781 23.804688 34.441406 23.796875 C 34.253906 23.792969 34.007812 23.875 33.914062 23.636719 C 33.832031 23.429688 33.890625 23.179688 34.035156 23.027344 C 34.328125 22.71875 34.558594 22.363281 34.816406 22.03125 C 35.746094 20.835938 36.671875 19.640625 37.613281 18.457031 C 37.867188 18.136719 38.140625 17.835938 38.359375 17.492188 C 38.511719 17.25 38.773438 17.246094 38.980469 17.320312 C 39.171875 17.390625 39.117188 17.613281 39.113281 17.808594 C 39.109375 18.769531 39.082031 19.730469 39.128906 20.691406 C 39.148438 21.070312 39.273438 21.109375 39.574219 21.105469 C 40.308594 21.089844 41.039062 21.109375 41.773438 21.09375 C 42.054688 21.089844 42.191406 21.117188 42.222656 21.476562 C 42.261719 21.886719 42.300781 22.292969 42.292969 22.75 C 42.214844 22.945312 42.269531 23.101562 42.222656 23.285156 Z M 42.222656 23.285156 "/>
<path style=" stroke:none;fill-rule:nonzero;fill:rgb(50.196078%,50.588235%,52.156863%);fill-opacity:1;" d="M 85.5 21.101562 C 86.035156 21.101562 86.519531 21.109375 87 21.097656 C 87.300781 21.089844 87.382812 21.210938 87.410156 21.507812 C 87.472656 22.113281 87.425781 22.710938 87.414062 23.3125 C 87.402344 23.679688 87.304688 23.816406 86.929688 23.804688 C 86.179688 23.785156 85.429688 23.816406 84.679688 23.792969 C 84.363281 23.78125 84.292969 23.894531 84.292969 24.191406 C 84.304688 25.910156 84.273438 27.625 84.316406 29.339844 C 84.332031 29.890625 84.40625 30.464844 84.863281 30.914062 C 85.339844 31.382812 85.910156 31.425781 86.5 31.371094 C 86.6875 31.355469 86.914062 31.367188 87.074219 31.28125 C 87.578125 31.011719 87.683594 31.378906 87.765625 31.710938 C 87.933594 32.371094 87.921875 33.050781 87.894531 33.726562 C 87.878906 34.21875 87.394531 34.050781 87.199219 34.074219 C 85.8125 34.246094 84.421875 34.347656 83.074219 33.808594 C 81.753906 33.277344 81.089844 32.390625 80.917969 31.042969 C 80.628906 28.8125 80.847656 26.5625 80.8125 24.320312 C 80.804688 23.921875 80.734375 23.734375 80.296875 23.792969 C 80.035156 23.828125 79.765625 23.8125 79.5 23.792969 C 79.367188 23.785156 79.160156 23.898438 79.117188 23.703125 C 79.074219 23.5 78.984375 23.289062 79.164062 23.066406 C 80.546875 21.335938 81.914062 19.597656 83.285156 17.863281 C 83.394531 17.722656 83.460938 17.558594 83.601562 17.429688 C 83.777344 17.269531 83.972656 17.277344 84.160156 17.3125 C 84.402344 17.363281 84.292969 17.585938 84.292969 17.730469 C 84.304688 18.679688 84.320312 19.628906 84.289062 20.578125 C 84.277344 20.984375 84.371094 21.167969 84.804688 21.105469 C 85.015625 21.074219 85.234375 21.101562 85.5 21.101562 Z M 85.5 21.101562 "/>
<path style=" stroke:none;fill-rule:nonzero;fill:rgb(50.196078%,50.588235%,52.156863%);fill-opacity:1;" d="M 66.324219 22.765625 C 66.253906 23.199219 66.378906 23.59375 66.222656 23.984375 C 66.148438 24.164062 66.128906 24.160156 65.933594 24.136719 C 64.9375 24.023438 63.945312 24.105469 63.136719 24.75 C 62.535156 25.234375 62.285156 25.957031 62.203125 26.726562 C 61.976562 28.898438 62.152344 31.074219 62.101562 33.25 C 62.082031 34.207031 62.101562 34.210938 61.105469 34.199219 C 60.296875 34.1875 59.484375 34.261719 58.640625 34.089844 C 58.535156 33.992188 58.550781 33.890625 58.550781 33.792969 C 58.554688 29.597656 58.542969 25.402344 58.574219 21.160156 C 59.507812 20.855469 60.417969 20.910156 61.335938 21.101562 C 61.535156 21.140625 61.570312 21.292969 61.601562 21.453125 C 61.6875 21.910156 61.832031 22.355469 61.808594 22.933594 C 62.261719 22.378906 62.664062 21.921875 63.175781 21.5625 C 63.894531 21.058594 64.675781 20.859375 65.542969 20.992188 C 65.574219 21 65.609375 21.003906 65.640625 21 C 66.222656 20.894531 66.375 21.191406 66.300781 21.746094 C 66.402344 22.097656 66.332031 22.414062 66.324219 22.765625 Z M 66.324219 22.765625 "/>
<path style=" stroke:none;fill-rule:nonzero;fill:rgb(96.470588%,64.313725%,17.254902%);fill-opacity:1;" d="M 147.871094 13.417969 C 148.179688 13.1875 148.5 13.355469 148.84375 13.296875 C 149.261719 13.203125 149.644531 13.269531 150.070312 13.273438 C 150.78125 13.234375 151.421875 13.4375 152.09375 13.558594 C 152.65625 14.148438 153.269531 14.632812 153.808594 15.199219 C 154.496094 15.914062 155.203125 16.617188 155.910156 17.3125 C 156.5625 17.949219 157.203125 18.59375 157.847656 19.238281 C 158.527344 19.917969 159.195312 20.609375 159.886719 21.277344 C 160.84375 22.195312 161.703125 23.210938 162.75 24.089844 C 162.945312 24.386719 163.164062 24.609375 163.390625 24.835938 C 164.789062 26.238281 166.191406 27.640625 167.597656 29.042969 C 167.757812 29.207031 167.949219 29.351562 168.042969 29.617188 C 168.054688 29.675781 168.050781 29.699219 168.03125 29.753906 C 167.898438 29.886719 167.785156 29.984375 167.640625 30.097656 C 167.28125 30.230469 167.121094 29.96875 166.941406 29.789062 C 165.484375 28.351562 164.046875 26.890625 162.589844 25.449219 C 162.421875 25.285156 162.269531 25.023438 161.972656 25.289062 C 161.769531 25.472656 161.691406 25.652344 161.929688 25.871094 C 162.039062 25.972656 162.140625 26.082031 162.246094 26.191406 C 163.617188 27.574219 165.007812 28.941406 166.375 30.324219 C 166.546875 30.5 166.769531 30.652344 166.726562 30.976562 C 166.484375 31.238281 166.707031 31.351562 166.839844 31.480469 C 168.28125 32.925781 169.726562 34.367188 171.160156 35.820312 C 171.1875 35.847656 171.648438 35.996094 171.136719 36.113281 C 171.082031 36.132812 171.0625 36.144531 171.007812 36.160156 C 170.644531 35.933594 170.332031 35.691406 170.050781 35.40625 C 167.183594 32.539062 164.320312 29.667969 161.445312 26.804688 C 161.253906 26.613281 161.09375 26.34375 160.71875 26.382812 C 160.023438 26.339844 159.769531 25.75 159.382812 25.371094 C 158.351562 24.355469 157.332031 23.335938 156.316406 22.3125 C 155.40625 21.394531 154.496094 20.46875 153.582031 19.554688 C 152.640625 18.617188 151.695312 17.683594 150.757812 16.746094 C 149.839844 15.832031 148.914062 14.925781 148.03125 13.976562 C 147.894531 13.832031 147.761719 13.671875 147.871094 13.417969 Z M 147.871094 13.417969 "/>
<path style=" stroke:none;fill-rule:nonzero;fill:rgb(95.294118%,61.176471%,19.607843%);fill-opacity:1;" d="M 147.851562 13.390625 C 147.933594 13.476562 147.953125 13.585938 148.015625 13.652344 C 148.746094 14.398438 149.484375 15.140625 150.21875 15.882812 C 150.902344 16.574219 151.589844 17.269531 152.277344 17.964844 C 152.894531 18.585938 153.515625 19.203125 154.136719 19.820312 C 154.847656 20.535156 155.5625 21.25 156.277344 21.960938 C 156.894531 22.582031 157.511719 23.203125 158.132812 23.820312 C 158.792969 24.46875 159.46875 25.101562 160.074219 25.804688 C 160.222656 25.980469 160.363281 26.179688 160.664062 26.199219 C 160.769531 26.292969 160.761719 26.410156 160.695312 26.476562 C 160.371094 26.832031 160.605469 27.054688 160.855469 27.304688 C 163.46875 29.910156 166.074219 32.519531 168.683594 35.132812 C 168.878906 35.328125 169.132812 35.492188 169.101562 35.851562 C 168.832031 35.785156 168.570312 35.796875 168.269531 35.804688 C 168.164062 35.855469 168.09375 35.859375 167.980469 35.832031 C 165.316406 33.375 162.855469 30.757812 160.292969 28.246094 C 159.71875 27.6875 159.726562 27.683594 159.003906 27.957031 C 157.988281 27.277344 157.230469 26.363281 156.394531 25.535156 C 153.867188 23.027344 151.355469 20.5 148.835938 17.984375 C 147.96875 17.113281 147.078125 16.261719 146.234375 15.367188 C 145.90625 15.019531 145.519531 14.675781 145.472656 14.117188 C 146.226562 13.730469 146.996094 13.492188 147.851562 13.390625 Z M 147.851562 13.390625 "/>
<path style=" stroke:none;fill-rule:nonzero;fill:rgb(95.294118%,50.588235%,12.54902%);fill-opacity:1;" d="M 28.515625 23.847656 C 28.023438 23.804688 27.554688 23.792969 27.089844 23.804688 C 26.894531 23.808594 26.828125 23.765625 26.789062 23.539062 C 26.660156 22.800781 26.664062 22.074219 26.789062 21.335938 C 26.824219 21.136719 26.886719 21.097656 27.066406 21.097656 C 28.613281 21.101562 30.160156 21.105469 31.707031 21.09375 C 31.96875 21.09375 32.003906 21.203125 32.003906 21.421875 C 32 25.550781 31.996094 29.675781 32.003906 33.804688 C 32.003906 34.050781 31.917969 34.074219 31.699219 34.113281 C 30.699219 34.277344 29.703125 34.207031 28.667969 34.09375 C 28.480469 33.929688 28.554688 33.738281 28.554688 33.5625 C 28.542969 30.339844 28.558594 27.113281 28.515625 23.847656 Z M 28.515625 23.847656 "/>
<path style=" stroke:none;fill-rule:nonzero;fill:rgb(50.196078%,50.588235%,52.156863%);fill-opacity:1;" d="M 94.425781 33.96875 C 93.488281 34.246094 92.570312 34.183594 91.636719 34.152344 C 90.898438 34.132812 90.996094 33.75 90.996094 33.285156 C 91.003906 30.289062 90.992188 27.289062 91.007812 24.289062 C 91.011719 23.90625 90.917969 23.742188 90.515625 23.792969 C 90.269531 23.824219 90.015625 23.773438 89.769531 23.804688 C 89.339844 23.867188 89.207031 23.636719 89.203125 23.277344 C 89.191406 22.726562 89.195312 22.179688 89.203125 21.628906 C 89.207031 21.269531 89.332031 21.082031 89.761719 21.089844 C 91.277344 21.117188 92.792969 21.101562 94.355469 21.109375 C 94.472656 21.222656 94.449219 21.34375 94.449219 21.457031 C 94.445312 25.613281 94.457031 29.769531 94.425781 33.96875 Z M 94.425781 33.96875 "/>
<path style=" stroke:none;fill-rule:nonzero;fill:rgb(96.862745%,67.45098%,13.72549%);fill-opacity:1;" d="M 162.710938 24.203125 C 162.039062 24.011719 161.765625 23.40625 161.316406 23.007812 C 160.90625 22.648438 160.578125 22.203125 160.164062 21.855469 C 159.742188 21.503906 159.390625 21.085938 159 20.710938 C 158.253906 19.992188 157.535156 19.242188 156.792969 18.519531 C 156.121094 17.863281 155.492188 17.164062 154.828125 16.5 C 154.164062 15.835938 153.476562 15.195312 152.808594 14.535156 C 152.546875 14.273438 152.175781 14.089844 152.113281 13.628906 C 152.898438 13.851562 152.914062 13.851562 152.894531 13.003906 C 152.882812 12.429688 153.039062 11.886719 153.15625 11.308594 C 153.492188 11.089844 153.699219 11.285156 153.882812 11.476562 C 157.15625 14.863281 160.535156 18.148438 163.847656 21.496094 C 164.09375 21.742188 164.402344 21.917969 164.636719 22.230469 C 164.699219 22.421875 164.652344 22.578125 164.542969 22.675781 C 164.183594 23 164.363281 23.21875 164.632812 23.484375 C 166.058594 24.898438 167.484375 26.316406 168.894531 27.75 C 169.085938 27.941406 169.355469 28.109375 169.234375 28.484375 C 169.136719 28.605469 169.050781 28.695312 168.941406 28.800781 C 168.570312 29.003906 168.390625 28.730469 168.195312 28.542969 C 166.8125 27.175781 165.4375 25.792969 164.0625 24.414062 C 163.578125 23.929688 163.574219 23.929688 162.941406 24.195312 C 162.878906 24.222656 162.8125 24.222656 162.710938 24.203125 Z M 162.710938 24.203125 "/>
<path style=" stroke:none;fill-rule:nonzero;fill:rgb(89.019608%,48.627451%,22.745098%);fill-opacity:1;" d="M 159.125 38.578125 C 159.011719 38.722656 158.910156 38.832031 158.800781 38.976562 C 158.773438 39.023438 158.753906 39.039062 158.699219 39.0625 C 158.398438 39.085938 158.246094 38.898438 158.082031 38.734375 C 156.75 37.40625 155.421875 36.078125 154.09375 34.746094 C 153.976562 34.628906 153.84375 34.519531 153.796875 34.351562 C 153.785156 34.304688 153.777344 34.253906 153.757812 34.207031 C 153.738281 34.261719 153.726562 34.316406 153.648438 34.375 C 153.257812 34.476562 153.066406 34.214844 152.859375 34.011719 C 151.734375 32.898438 150.617188 31.777344 149.5 30.65625 C 146.851562 28.007812 144.207031 25.355469 141.550781 22.710938 C 140.972656 22.136719 140.433594 21.523438 139.734375 21.027344 C 139.894531 20.292969 140.148438 19.609375 140.457031 18.914062 C 140.671875 18.726562 140.855469 18.789062 141.03125 18.910156 C 141.183594 19.011719 141.304688 19.152344 141.4375 19.28125 C 145.613281 23.457031 149.785156 27.632812 153.960938 31.808594 C 154.171875 32.015625 154.414062 32.207031 154.535156 32.535156 C 154.570312 32.648438 154.589844 32.746094 154.546875 32.8125 C 154.191406 33.382812 154.558594 33.714844 154.929688 34.078125 C 156.21875 35.351562 157.5 36.636719 158.777344 37.925781 C 158.945312 38.097656 159.167969 38.25 159.125 38.578125 Z M 159.125 38.578125 "/>
<path style=" stroke:none;fill-rule:nonzero;fill:rgb(92.156863%,52.54902%,23.921569%);fill-opacity:1;" d="M 154.476562 32.699219 C 154.355469 32.484375 154.191406 32.339844 154.039062 32.1875 C 149.734375 27.882812 145.429688 23.582031 141.125 19.277344 C 140.964844 19.117188 140.828125 18.910156 140.523438 18.898438 C 140.707031 18.226562 141.179688 17.710938 141.5625 17.105469 C 141.839844 17.078125 141.992188 17.238281 142.144531 17.390625 C 146.550781 21.804688 150.972656 26.203125 155.375 30.621094 C 155.515625 30.761719 155.65625 30.90625 155.722656 31.140625 C 155.746094 31.292969 155.742188 31.425781 155.664062 31.507812 C 155.265625 31.921875 155.527344 32.183594 155.835938 32.488281 C 157.226562 33.867188 158.613281 35.253906 159.992188 36.640625 C 160.15625 36.804688 160.34375 36.949219 160.441406 37.210938 C 160.449219 37.269531 160.449219 37.292969 160.429688 37.351562 C 160.296875 37.480469 160.183594 37.582031 160.039062 37.699219 C 159.679688 37.828125 159.523438 37.566406 159.34375 37.390625 C 157.929688 36 156.542969 34.585938 155.136719 33.191406 C 154.945312 33.003906 154.777344 32.792969 154.476562 32.699219 Z M 154.476562 32.699219 "/>
<path style=" stroke:none;fill-rule:nonzero;fill:rgb(95.294118%,59.215686%,21.568627%);fill-opacity:1;" d="M 145.457031 14.09375 C 146.253906 15.1875 147.242188 16.078125 148.175781 17.011719 C 149.324219 18.167969 150.484375 19.3125 151.636719 20.464844 C 152.90625 21.730469 154.175781 23 155.445312 24.269531 C 156.335938 25.164062 157.238281 26.050781 158.105469 26.96875 C 158.390625 27.265625 158.816406 27.417969 158.992188 27.867188 C 159.210938 28.261719 159.503906 28.554688 159.796875 28.847656 C 161.765625 30.804688 163.726562 32.773438 165.6875 34.738281 C 165.882812 34.933594 166.140625 35.097656 166.109375 35.457031 C 165.839844 35.578125 165.628906 35.351562 165.34375 35.410156 C 165.285156 35.429688 165.265625 35.441406 165.207031 35.457031 C 164.855469 35.273438 164.582031 35.035156 164.324219 34.777344 C 162.546875 33.003906 160.765625 31.234375 159.003906 29.445312 C 158.65625 29.09375 158.34375 28.875 157.820312 29.09375 C 157.550781 29.019531 157.390625 28.847656 157.226562 28.683594 C 152.9375 24.386719 148.640625 20.097656 144.351562 15.804688 C 144.144531 15.59375 143.890625 15.40625 143.886719 15.03125 C 144.3125 14.550781 144.894531 14.371094 145.457031 14.09375 Z M 145.457031 14.09375 "/>
<path style=" stroke:none;fill-rule:nonzero;fill:rgb(94.509804%,55.686275%,24.313725%);fill-opacity:1;" d="M 155.660156 31.292969 C 155.527344 31.035156 155.328125 30.878906 155.152344 30.703125 C 150.792969 26.34375 146.433594 21.980469 142.074219 17.621094 C 141.917969 17.46875 141.777344 17.304688 141.613281 17.117188 C 141.90625 16.664062 142.246094 16.273438 142.664062 15.902344 C 142.976562 15.878906 143.152344 16.070312 143.328125 16.246094 C 147.617188 20.597656 151.964844 24.894531 156.277344 29.226562 C 156.496094 29.449219 156.769531 29.625 156.945312 29.941406 C 156.984375 30.074219 156.980469 30.191406 156.914062 30.257812 C 156.511719 30.671875 156.773438 30.933594 157.082031 31.238281 C 158.476562 32.617188 159.867188 34 161.246094 35.394531 C 161.425781 35.578125 161.667969 35.734375 161.628906 36.082031 C 161.53125 36.203125 161.449219 36.292969 161.34375 36.402344 C 160.972656 36.601562 160.789062 36.332031 160.597656 36.140625 C 159.171875 34.742188 157.773438 33.320312 156.355469 31.910156 C 156.144531 31.699219 155.933594 31.484375 155.660156 31.292969 Z M 155.660156 31.292969 "/>
<path style=" stroke:none;fill-rule:nonzero;fill:rgb(81.568627%,37.254902%,20.784314%);fill-opacity:1;" d="M 143.695312 33.832031 C 143.816406 33.292969 144.152344 32.910156 144.449219 32.503906 C 144.632812 32.25 144.789062 32.128906 144.363281 31.875 C 142.667969 30.867188 141.339844 29.492188 140.492188 27.644531 C 140.699219 27.398438 140.886719 27.558594 141.066406 27.667969 C 141.28125 27.796875 141.445312 27.988281 141.621094 28.167969 C 145.644531 32.1875 149.664062 36.214844 153.695312 40.226562 C 153.96875 40.496094 154.117188 40.921875 154.597656 41.003906 C 154.699219 41.035156 154.753906 41.074219 154.828125 41.148438 C 154.902344 41.234375 154.945312 41.308594 155.039062 41.378906 C 155.269531 41.570312 155.511719 41.710938 155.636719 42.007812 C 155.648438 42.0625 155.648438 42.085938 155.628906 42.140625 C 155.003906 42.746094 154.375 43.296875 153.539062 43.605469 C 153.121094 43.496094 152.863281 43.203125 152.597656 42.9375 C 149.742188 40.097656 146.894531 37.246094 144.046875 34.402344 C 143.890625 34.246094 143.75 34.085938 143.695312 33.832031 Z M 143.695312 33.832031 "/>
<path style=" stroke:none;fill-rule:nonzero;fill:rgb(97.647059%,70.196078%,11.372549%);fill-opacity:1;" d="M 164.617188 22.328125 C 164.28125 22.214844 164.050781 22 163.824219 21.773438 C 160.59375 18.546875 157.367188 15.3125 154.132812 12.089844 C 153.855469 11.816406 153.710938 11.390625 153.226562 11.296875 C 153.292969 10.527344 153.734375 9.90625 154.058594 9.207031 C 154.265625 9.128906 154.367188 9.246094 154.472656 9.355469 C 155.683594 10.535156 156.847656 11.761719 158.050781 12.949219 C 158.972656 13.855469 159.886719 14.769531 160.804688 15.679688 C 161.519531 16.390625 162.226562 17.117188 162.9375 17.832031 C 163.769531 18.667969 164.601562 19.503906 165.460938 20.304688 C 165.644531 20.476562 165.832031 20.644531 165.90625 20.9375 C 165.914062 21.152344 165.84375 21.308594 165.71875 21.417969 C 165.359375 21.726562 165.496094 21.953125 165.777344 22.230469 C 167.21875 23.65625 168.648438 25.097656 170.082031 26.53125 C 170.257812 26.707031 170.472656 26.855469 170.503906 27.164062 C 170.402344 27.316406 170.304688 27.433594 170.195312 27.578125 C 170.167969 27.625 170.144531 27.636719 170.089844 27.648438 C 169.859375 27.617188 169.730469 27.484375 169.601562 27.351562 C 167.984375 25.742188 166.382812 24.121094 164.753906 22.519531 C 164.703125 22.472656 164.675781 22.414062 164.617188 22.328125 Z M 164.617188 22.328125 "/>
<path style=" stroke:none;fill-rule:nonzero;fill:rgb(87.058824%,45.098039%,22.352941%);fill-opacity:1;" d="M 139.703125 21.042969 C 140.128906 20.960938 140.382812 21.230469 140.644531 21.492188 C 144.769531 25.621094 148.898438 29.746094 153.027344 33.875 C 153.1875 34.035156 153.324219 34.234375 153.605469 34.304688 C 153.808594 34.484375 153.753906 34.695312 153.699219 34.875 C 153.59375 35.230469 153.722656 35.46875 153.96875 35.710938 C 155.144531 36.878906 156.3125 38.054688 157.480469 39.230469 C 157.652344 39.402344 157.875 39.554688 157.828125 39.878906 C 157.734375 40.003906 157.648438 40.09375 157.542969 40.203125 C 157.226562 40.386719 157.039062 40.191406 156.867188 40.015625 C 155.726562 38.855469 154.527344 37.757812 153.441406 36.542969 C 153.394531 36.488281 153.335938 36.464844 153.238281 36.433594 C 152.589844 36.28125 152.273438 35.75 151.867188 35.359375 C 151.148438 34.671875 150.453125 33.964844 149.757812 33.257812 C 149.105469 32.597656 148.445312 31.945312 147.796875 31.285156 C 147.144531 30.628906 146.492188 29.96875 145.832031 29.320312 C 145.160156 28.65625 144.492188 27.988281 143.824219 27.324219 C 143.144531 26.644531 142.449219 25.984375 141.792969 25.28125 C 141.058594 24.496094 140.1875 23.84375 139.539062 22.925781 C 139.441406 22.28125 139.632812 21.691406 139.703125 21.042969 Z M 139.703125 21.042969 "/>
<path style=" stroke:none;fill-rule:nonzero;fill:rgb(83.529412%,40.392157%,21.176471%);fill-opacity:1;" d="M 154.621094 41.058594 C 154.308594 41.316406 154.183594 41.023438 154.039062 40.878906 C 152.042969 38.894531 150.050781 36.902344 148.0625 34.910156 C 145.8125 32.664062 143.566406 30.414062 141.316406 28.167969 C 141.09375 27.941406 140.863281 27.722656 140.519531 27.613281 C 140.011719 26.714844 139.738281 25.757812 139.601562 24.757812 C 139.585938 24.660156 139.613281 24.558594 139.523438 24.4375 C 139.730469 24.203125 139.917969 24.324219 140.09375 24.460938 C 140.265625 24.59375 140.410156 24.757812 140.5625 24.910156 C 144.730469 29.066406 148.886719 33.238281 153.050781 37.398438 C 153.125 37.472656 153.1875 37.546875 153.324219 37.582031 C 154.316406 38.574219 155.296875 39.539062 156.265625 40.511719 C 156.402344 40.652344 156.558594 40.78125 156.640625 41.011719 C 156.648438 41.070312 156.648438 41.09375 156.628906 41.148438 C 156.5 41.28125 156.382812 41.382812 156.242188 41.5 C 155.933594 41.625 155.78125 41.425781 155.621094 41.269531 C 155.089844 40.753906 154.570312 40.226562 154.074219 39.722656 C 154.164062 40.179688 154.671875 40.484375 154.621094 41.058594 Z M 154.621094 41.058594 "/>
<path style=" stroke:none;fill-rule:nonzero;fill:rgb(95.294118%,57.647059%,23.529412%);fill-opacity:1;" d="M 156.921875 30.023438 C 156.609375 29.882812 156.410156 29.65625 156.199219 29.449219 C 151.984375 25.234375 147.773438 21.023438 143.558594 16.808594 C 143.277344 16.527344 143.007812 16.234375 142.710938 15.917969 C 143.0625 15.582031 143.382812 15.21875 143.851562 14.996094 C 148.453125 19.574219 153.015625 24.148438 157.574219 28.726562 C 157.644531 28.796875 157.707031 28.878906 157.789062 28.984375 C 157.796875 29.429688 158.039062 29.699219 158.316406 29.972656 C 159.800781 31.425781 161.253906 32.90625 162.722656 34.375 C 162.90625 34.558594 163.140625 34.71875 163.109375 35.058594 C 162.933594 35.105469 162.777344 35.121094 162.601562 35.175781 C 162.566406 35.222656 162.546875 35.234375 162.488281 35.25 C 162.1875 35.195312 162.039062 34.988281 161.863281 34.8125 C 160.433594 33.386719 159 31.960938 157.574219 30.523438 C 157.386719 30.335938 157.191406 30.160156 156.921875 30.023438 Z M 156.921875 30.023438 "/>
<path style=" stroke:none;fill-rule:nonzero;fill:rgb(97.647059%,73.333333%,7.843137%);fill-opacity:1;" d="M 173.035156 24.6875 C 172.933594 24.804688 172.851562 24.894531 172.742188 25.003906 C 172.371094 25.203125 172.191406 24.933594 172 24.742188 C 170.546875 23.3125 169.105469 21.867188 167.671875 20.417969 C 167.421875 20.160156 167.183594 20.054688 166.8125 20.167969 C 166.40625 20.003906 166.207031 19.660156 165.941406 19.394531 C 162.363281 15.820312 158.789062 12.246094 155.214844 8.671875 C 155.066406 8.523438 154.851562 8.414062 154.882812 8.121094 C 155.246094 7.703125 155.582031 7.296875 156.054688 6.996094 C 156.59375 6.992188 156.8125 7.429688 157.097656 7.710938 C 158.40625 9.007812 159.710938 10.304688 161.003906 11.613281 C 162.183594 12.804688 163.371094 13.980469 164.546875 15.171875 C 165.585938 16.222656 166.644531 17.253906 167.671875 18.3125 C 167.8125 18.457031 167.953125 18.601562 168.023438 18.832031 C 168.007812 19.195312 168.164062 19.421875 168.390625 19.644531 C 169.835938 21.066406 171.265625 22.507812 172.695312 23.945312 C 172.886719 24.140625 173.152344 24.308594 173.035156 24.6875 Z M 173.035156 24.6875 "/>
<path style=" stroke:none;fill-rule:nonzero;fill:rgb(98.823529%,75.686275%,6.27451%);fill-opacity:1;" d="M 167.96875 18.984375 C 167.503906 18.332031 166.898438 17.855469 166.378906 17.296875 C 165.679688 16.550781 164.933594 15.839844 164.207031 15.117188 C 163.585938 14.496094 162.964844 13.882812 162.34375 13.261719 C 161.648438 12.574219 160.957031 11.886719 160.265625 11.195312 C 159.609375 10.542969 158.953125 9.890625 158.300781 9.234375 C 157.578125 8.503906 156.859375 7.769531 156.113281 7.015625 C 156.511719 6.527344 157.0625 6.253906 157.660156 5.992188 C 157.738281 6.289062 157.9375 6.488281 158.140625 6.691406 C 159.992188 8.539062 161.84375 10.386719 163.6875 12.242188 C 164.003906 12.558594 164.285156 12.910156 164.589844 13.277344 C 164.621094 13.617188 164.925781 13.660156 165.09375 13.828125 C 168.050781 16.800781 171.015625 19.761719 173.976562 22.726562 C 174.148438 22.898438 174.371094 23.054688 174.328125 23.378906 C 174.210938 23.523438 174.109375 23.636719 173.996094 23.78125 C 173.964844 23.824219 173.945312 23.835938 173.886719 23.851562 C 173.589844 23.796875 173.4375 23.585938 173.261719 23.414062 C 171.90625 22.066406 170.550781 20.71875 169.214844 19.355469 C 168.855469 18.992188 168.535156 18.675781 167.96875 18.984375 Z M 167.96875 18.984375 "/>
<path style=" stroke:none;fill-rule:nonzero;fill:rgb(98.431373%,80.392157%,7.843137%);fill-opacity:1;" d="M 173.425781 13.523438 C 173.101562 13.433594 172.84375 13.292969 172.625 13.074219 C 171.164062 11.605469 169.699219 10.136719 168.21875 8.644531 C 168.691406 8.136719 169.183594 7.65625 169.671875 7.175781 C 169.808594 7.039062 169.945312 6.902344 170.15625 6.808594 C 170.40625 6.667969 170.605469 6.730469 170.785156 6.871094 C 171.402344 7.371094 171.953125 7.9375 172.519531 8.492188 C 173.242188 9.207031 173.910156 9.984375 174.707031 10.628906 C 174.984375 10.847656 175.125 11.179688 175.40625 11.441406 C 177.035156 13.074219 178.640625 14.683594 180.242188 16.292969 C 180.421875 16.476562 180.667969 16.632812 180.625 16.976562 C 180.503906 17.148438 180.472656 17.34375 180.289062 17.46875 C 180.253906 17.511719 180.234375 17.523438 180.179688 17.539062 C 179.878906 17.488281 179.722656 17.277344 179.550781 17.101562 C 178.117188 15.664062 176.671875 14.230469 175.234375 12.796875 C 175.085938 12.644531 174.953125 12.382812 174.660156 12.605469 C 174.371094 12.824219 174.355469 12.996094 174.652344 13.296875 C 175.671875 14.324219 176.714844 15.335938 177.722656 16.375 C 178.296875 16.972656 178.957031 17.488281 179.445312 18.214844 C 179.453125 18.277344 179.453125 18.300781 179.433594 18.355469 C 179.300781 18.484375 179.183594 18.585938 179.039062 18.699219 C 178.679688 18.828125 178.523438 18.566406 178.34375 18.390625 C 176.96875 17.035156 175.613281 15.660156 174.246094 14.300781 C 173.988281 14.042969 173.726562 13.789062 173.425781 13.523438 Z M 173.425781 13.523438 "/>
<path style=" stroke:none;fill-rule:nonzero;fill:rgb(97.647059%,71.764706%,9.803922%);fill-opacity:1;" d="M 154.863281 8.101562 C 158.570312 11.75 162.25 15.414062 165.921875 19.078125 C 166.226562 19.378906 166.5 19.710938 166.792969 20.0625 C 166.691406 20.644531 167.078125 20.933594 167.40625 21.253906 C 168.753906 22.589844 170.089844 23.9375 171.429688 25.28125 C 171.582031 25.433594 171.757812 25.570312 171.84375 25.816406 C 171.851562 25.875 171.851562 25.898438 171.832031 25.957031 C 171.699219 26.085938 171.582031 26.183594 171.441406 26.296875 C 171.203125 26.40625 171.050781 26.292969 170.921875 26.164062 C 169.226562 24.46875 167.507812 22.796875 165.824219 21.042969 C 165.527344 20.613281 165.15625 20.300781 164.808594 19.96875 C 163.714844 18.917969 162.652344 17.835938 161.589844 16.75 C 160.667969 15.8125 159.691406 14.921875 158.757812 13.992188 C 157.835938 13.070312 156.972656 12.089844 156.023438 11.203125 C 155.492188 10.703125 155.066406 10.097656 154.46875 9.667969 C 154.328125 9.566406 154.246094 9.382812 154.113281 9.214844 C 154.335938 8.832031 154.585938 8.476562 154.863281 8.101562 Z M 154.863281 8.101562 "/>
<path style=" stroke:none;fill-rule:nonzero;fill:rgb(77.647059%,30.588235%,19.215686%);fill-opacity:1;" d="M 143.65625 33.816406 C 143.851562 33.9375 144.019531 34.074219 144.171875 34.226562 C 147 37.046875 149.828125 39.871094 152.644531 42.707031 C 152.921875 42.984375 153.324219 43.144531 153.488281 43.578125 C 152.820312 44.015625 152.054688 44.171875 151.242188 44.292969 C 150.675781 43.710938 150.113281 43.167969 149.5625 42.617188 C 147.617188 40.671875 145.671875 38.71875 143.71875 36.773438 C 143.519531 36.574219 143.328125 36.367188 143.042969 36.21875 C 143.046875 35.367188 143.339844 34.601562 143.65625 33.816406 Z M 143.65625 33.816406 "/>
<path style=" stroke:none;fill-rule:nonzero;fill:rgb(50.980392%,51.372549%,52.54902%);fill-opacity:1;" d="M 179.660156 7.242188 C 179.867188 7.015625 180 7.023438 180.214844 7.242188 C 185.019531 12.066406 189.839844 16.875 194.648438 21.695312 C 195.175781 22.222656 195.304688 22.949219 195.484375 23.632812 C 195.535156 23.820312 195.691406 24.019531 195.519531 24.328125 C 190.957031 19.75 186.414062 15.191406 181.835938 10.632812 C 181.730469 10.632812 181.664062 10.601562 181.578125 10.535156 C 181.539062 10.492188 181.523438 10.472656 181.488281 10.421875 C 181.464844 10.367188 181.457031 10.347656 181.445312 10.289062 C 181.144531 9.339844 180.589844 8.578125 179.992188 7.847656 C 179.875 7.707031 179.722656 7.597656 179.652344 7.382812 C 179.644531 7.324219 179.644531 7.300781 179.660156 7.242188 Z M 179.660156 7.242188 "/>
<path style=" stroke:none;fill-rule:nonzero;fill:rgb(50.980392%,51.372549%,52.54902%);fill-opacity:1;" d="M 178.96875 18.777344 C 179.070312 18.839844 179.136719 18.886719 179.195312 18.945312 C 183.859375 23.609375 188.523438 28.273438 193.195312 32.945312 C 192.90625 33.222656 192.621094 33.496094 192.324219 33.777344 C 187.636719 29.089844 182.925781 24.382812 178.199219 19.644531 C 178.203125 19.140625 178.425781 18.890625 178.96875 18.777344 Z M 178.96875 18.777344 "/>
<path style=" stroke:none;fill-rule:nonzero;fill:rgb(51.372549%,51.764706%,52.941176%);fill-opacity:1;" d="M 180.199219 17.492188 C 180.238281 17.488281 180.257812 17.484375 180.265625 17.492188 C 180.574219 17.808594 180.871094 18.121094 181.175781 18.425781 C 185.449219 22.699219 189.71875 26.976562 194.003906 31.238281 C 194.296875 31.523438 194.234375 31.691406 194.027344 31.929688 C 193.941406 32.027344 193.851562 32.113281 193.789062 32.238281 C 193.667969 32.457031 193.480469 32.464844 193.304688 32.273438 C 193.269531 32.238281 193.234375 32.203125 193.199219 32.167969 C 188.621094 27.585938 184.042969 23.007812 179.441406 18.40625 C 179.414062 18.386719 179.421875 18.347656 179.421875 18.324219 C 179.464844 17.847656 179.75 17.613281 180.199219 17.492188 Z M 180.199219 17.492188 "/>
<path style=" stroke:none;fill-rule:nonzero;fill:rgb(51.372549%,51.764706%,52.941176%);fill-opacity:1;" d="M 177.667969 20.019531 C 177.703125 20.023438 177.746094 20.019531 177.765625 20.015625 C 182.347656 24.574219 186.90625 29.136719 191.464844 33.695312 C 191.902344 34.132812 191.863281 34.203125 191.335938 34.546875 C 190.964844 34.789062 190.769531 34.738281 190.457031 34.425781 C 185.980469 29.921875 181.488281 25.433594 176.976562 20.914062 C 176.941406 20.425781 177.105469 20.214844 177.667969 20.019531 Z M 177.667969 20.019531 "/>
<path style=" stroke:none;fill-rule:nonzero;fill:rgb(50.980392%,51.372549%,52.54902%);fill-opacity:1;" d="M 181.273438 15.972656 C 181.457031 16.117188 181.605469 16.246094 181.746094 16.386719 C 186.070312 20.707031 190.390625 25.03125 194.710938 29.351562 C 195.109375 29.75 195.097656 30.453125 194.699219 30.835938 C 194.617188 30.917969 194.558594 30.898438 194.492188 30.839844 C 194.417969 30.769531 194.347656 30.699219 194.277344 30.628906 C 189.753906 26.105469 185.234375 21.585938 180.695312 17.03125 C 180.617188 16.523438 180.808594 16.179688 181.273438 15.972656 Z M 181.273438 15.972656 "/>
<path style=" stroke:none;fill-rule:nonzero;fill:rgb(51.372549%,51.764706%,52.941176%);fill-opacity:1;" d="M 181.96875 11.597656 C 182.566406 12.117188 183.128906 12.664062 183.679688 13.214844 C 187.554688 17.085938 191.421875 20.964844 195.308594 24.828125 C 195.664062 25.179688 195.878906 25.519531 195.804688 26.03125 C 195.765625 26.320312 195.800781 26.621094 195.800781 27.039062 C 191.171875 22.414062 186.621094 17.867188 182.046875 13.304688 C 181.992188 13.269531 181.964844 13.25 181.914062 13.1875 C 181.78125 12.636719 181.65625 12.125 181.96875 11.597656 Z M 181.96875 11.597656 "/>
<path style=" stroke:none;fill-rule:nonzero;fill:rgb(50.980392%,51.372549%,52.54902%);fill-opacity:1;" d="M 181.878906 14.109375 C 182.011719 14.183594 182.117188 14.265625 182.210938 14.359375 C 186.617188 18.765625 191.023438 23.171875 195.429688 27.578125 C 195.679688 27.828125 195.648438 28.777344 195.386719 29.03125 C 195.308594 29.109375 195.25 29.097656 195.183594 29.035156 C 195.121094 28.980469 195.0625 28.921875 195.003906 28.863281 C 190.527344 24.386719 186.054688 19.90625 181.554688 15.40625 C 181.507812 15.371094 181.488281 15.355469 181.453125 15.304688 C 181.492188 14.855469 181.515625 14.4375 181.878906 14.109375 Z M 181.878906 14.109375 "/>
<path style=" stroke:none;fill-rule:nonzero;fill:rgb(51.372549%,51.764706%,52.941176%);fill-opacity:1;" d="M 175.640625 22.207031 C 175.613281 22.1875 175.617188 22.144531 175.621094 22.125 C 175.714844 21.621094 175.925781 21.414062 176.453125 21.339844 C 180.484375 25.34375 184.480469 29.335938 188.476562 33.328125 C 189.078125 33.929688 189.679688 34.527344 190.316406 35.160156 C 189.945312 35.304688 189.605469 35.433594 189.269531 35.570312 C 189.125 35.628906 189.015625 35.597656 188.917969 35.484375 C 188.882812 35.449219 188.847656 35.414062 188.8125 35.378906 C 184.429688 30.996094 180.046875 26.609375 175.640625 22.207031 Z M 175.640625 22.207031 "/>
<path style=" stroke:none;fill-rule:nonzero;fill:rgb(50.980392%,51.372549%,52.54902%);fill-opacity:1;" d="M 175.171875 22.578125 C 175.320312 22.6875 175.433594 22.785156 175.539062 22.886719 C 179.722656 27.070312 183.90625 31.253906 188.089844 35.4375 C 188.203125 35.550781 188.308594 35.671875 188.457031 35.832031 C 188.058594 35.933594 187.726562 36.027344 187.386719 36.101562 C 187.105469 36.167969 186.933594 35.996094 186.75 35.8125 C 183.570312 32.625 180.386719 29.445312 177.207031 26.265625 C 176.273438 25.335938 175.34375 24.402344 174.398438 23.441406 C 174.40625 22.941406 174.625 22.6875 175.171875 22.578125 Z M 175.171875 22.578125 "/>
<path style=" stroke:none;fill-rule:nonzero;fill:rgb(51.372549%,51.764706%,52.941176%);fill-opacity:1;" d="M 168.042969 29.804688 C 168.015625 29.789062 168.019531 29.746094 168.019531 29.726562 C 168.117188 29.21875 168.328125 29.011719 168.855469 28.941406 C 172.792969 32.855469 176.695312 36.75 180.601562 40.644531 C 180.734375 40.777344 180.789062 40.859375 180.644531 41.039062 C 180.554688 41.148438 180.460938 41.265625 180.375 41.382812 C 180.121094 41.726562 179.933594 41.71875 179.609375 41.394531 C 175.773438 37.527344 171.917969 33.679688 168.042969 29.804688 Z M 168.042969 29.804688 "/>
<path style=" stroke:none;fill-rule:nonzero;fill:rgb(50.980392%,51.372549%,52.54902%);fill-opacity:1;" d="M 167.574219 30.175781 C 167.890625 30.449219 168.167969 30.710938 168.4375 30.980469 C 172.03125 34.570312 175.621094 38.164062 179.214844 41.753906 C 179.34375 41.882812 179.488281 41.996094 179.609375 42.101562 C 179.425781 42.441406 179.09375 42.527344 178.882812 42.761719 C 178.777344 42.878906 178.597656 42.914062 178.472656 42.726562 C 178.445312 42.6875 178.402344 42.65625 178.367188 42.621094 C 174.519531 38.769531 170.667969 34.917969 166.804688 31.039062 C 166.804688 30.535156 167.03125 30.28125 167.574219 30.175781 Z M 167.574219 30.175781 "/>
<path style=" stroke:none;fill-rule:nonzero;fill:rgb(51.372549%,51.764706%,52.941176%);fill-opacity:1;" d="M 173.867188 23.820312 C 173.90625 23.820312 173.945312 23.816406 173.964844 23.816406 C 177.882812 27.710938 181.773438 31.605469 185.667969 35.5 C 185.796875 35.632812 185.933594 35.757812 186.054688 35.890625 C 186.117188 35.957031 186.234375 36.011719 186.171875 36.132812 C 186.125 36.226562 186.027344 36.191406 185.953125 36.199219 C 185.144531 36.277344 184.496094 36.089844 183.878906 35.460938 C 180.347656 31.863281 176.765625 28.3125 173.175781 24.714844 C 173.140625 24.226562 173.304688 24.011719 173.867188 23.820312 Z M 173.867188 23.820312 "/>
<path style=" stroke:none;fill-rule:nonzero;fill:rgb(85.490196%,42.352941%,21.568627%);fill-opacity:1;" d="M 153.335938 37.671875 C 152.976562 37.714844 152.824219 37.472656 152.640625 37.289062 C 148.484375 33.136719 144.332031 28.984375 140.179688 24.832031 C 140.003906 24.660156 139.867188 24.429688 139.550781 24.402344 C 139.511719 23.929688 139.507812 23.460938 139.507812 22.945312 C 139.738281 22.941406 139.882812 23.085938 140.042969 23.246094 C 140.6875 23.90625 141.367188 24.535156 142.019531 25.1875 C 142.699219 25.863281 143.355469 26.5625 144.03125 27.242188 C 144.671875 27.882812 145.328125 28.511719 145.972656 29.148438 C 146.632812 29.800781 147.285156 30.457031 147.941406 31.109375 C 148.628906 31.796875 149.320312 32.480469 150.003906 33.171875 C 150.679688 33.851562 151.316406 34.570312 152.027344 35.210938 C 152.40625 35.554688 152.652344 36.078125 153.253906 36.195312 C 153.566406 36.664062 153.621094 37.144531 153.335938 37.671875 Z M 153.335938 37.671875 "/>
<path style=" stroke:none;fill-rule:nonzero;fill:rgb(51.372549%,51.764706%,52.941176%);fill-opacity:1;" d="M 170.066406 27.617188 C 170.105469 27.621094 170.144531 27.617188 170.167969 27.613281 C 173.910156 31.335938 177.632812 35.058594 181.351562 38.789062 C 181.492188 38.933594 181.773438 39.042969 181.683594 39.292969 C 181.574219 39.613281 181.394531 39.910156 181.234375 40.210938 C 181.195312 40.28125 181.125 40.269531 181.070312 40.214844 C 181 40.144531 180.925781 40.074219 180.855469 40.003906 C 177.039062 36.183594 173.21875 32.367188 169.378906 28.519531 C 169.335938 28.03125 169.5 27.816406 170.066406 27.617188 Z M 170.066406 27.617188 "/>
<path style=" stroke:none;fill-rule:nonzero;fill:rgb(50.980392%,51.372549%,52.54902%);fill-opacity:1;" d="M 171.375 26.375 C 172.347656 27.308594 173.285156 28.226562 174.214844 29.15625 C 176.792969 31.730469 179.371094 34.308594 181.945312 36.886719 C 182.328125 37.265625 182.351562 38.035156 182.023438 38.464844 C 181.945312 38.5625 181.914062 38.558594 181.84375 38.496094 C 181.769531 38.425781 181.703125 38.355469 181.632812 38.285156 C 177.960938 34.613281 174.289062 30.941406 170.601562 27.238281 C 170.601562 26.742188 170.828125 26.484375 171.375 26.375 Z M 171.375 26.375 "/>
<path style=" stroke:none;fill-rule:nonzero;fill:rgb(51.372549%,51.764706%,52.941176%);fill-opacity:1;" d="M 171.839844 26.007812 C 171.8125 25.988281 171.820312 25.945312 171.820312 25.925781 C 171.914062 25.421875 172.128906 25.214844 172.652344 25.140625 C 176.199219 28.664062 179.714844 32.175781 183.246094 35.710938 C 183.277344 35.769531 183.28125 35.800781 183.238281 35.824219 C 183.089844 35.808594 182.96875 35.839844 182.894531 35.796875 C 182.496094 35.570312 182.453125 35.859375 182.402344 36.125 C 182.382812 36.230469 182.398438 36.347656 182.398438 36.523438 C 178.859375 32.992188 175.363281 29.507812 171.839844 26.007812 Z M 171.839844 26.007812 "/>
<path style=" stroke:none;fill-rule:nonzero;fill:rgb(50.980392%,51.372549%,52.54902%);fill-opacity:1;" d="M 182.019531 8.28125 C 181.460938 7.730469 180.929688 7.203125 180.390625 6.675781 C 180.445312 6.613281 180.464844 6.5625 180.503906 6.542969 C 181.433594 5.980469 181.433594 5.984375 182.21875 6.765625 C 185.1875 9.734375 188.15625 12.703125 191.117188 15.675781 C 191.226562 15.785156 191.472656 15.851562 191.347656 16.105469 C 191.195312 16.410156 191.066406 16.746094 190.78125 16.941406 C 190.660156 17.027344 190.550781 16.808594 190.457031 16.710938 C 187.898438 14.160156 185.34375 11.601562 182.789062 9.046875 C 182.539062 8.800781 182.292969 8.550781 182.019531 8.28125 Z M 182.019531 8.28125 "/>
<path style=" stroke:none;fill-rule:nonzero;fill:rgb(99.215686%,83.921569%,11.372549%);fill-opacity:1;" d="M 181.507812 15.285156 C 181.515625 15.320312 181.519531 15.355469 181.523438 15.371094 C 181.460938 15.53125 181.390625 15.679688 181.304688 15.859375 C 180.960938 16.003906 180.796875 15.746094 180.617188 15.566406 C 179.296875 14.25 177.972656 12.933594 176.65625 11.609375 C 176.226562 11.179688 176.222656 11.179688 175.699219 11.53125 C 175.597656 11.597656 175.496094 11.648438 175.339844 11.621094 C 174.570312 10.863281 173.875 10.074219 173.09375 9.378906 C 172.371094 8.734375 171.804688 7.921875 170.984375 7.378906 C 170.730469 7.210938 170.613281 6.859375 170.222656 6.804688 C 170.777344 6.273438 171.445312 5.894531 172.253906 5.695312 C 172.902344 6.019531 173.296875 6.589844 173.773438 7.0625 C 174.6875 7.964844 175.609375 8.863281 176.492188 9.796875 C 176.59375 9.90625 176.695312 10.011719 176.765625 10.1875 C 176.90625 10.460938 177.101562 10.644531 177.285156 10.832031 C 178.554688 12.105469 179.828125 13.371094 181.097656 14.640625 C 181.273438 14.816406 181.46875 14.984375 181.507812 15.285156 Z M 181.507812 15.285156 "/>
<path style=" stroke:none;fill-rule:nonzero;fill:rgb(74.901961%,25.098039%,18.039216%);fill-opacity:1;" d="M 143.007812 36.246094 C 143.269531 35.886719 143.414062 36.167969 143.5625 36.316406 C 145.039062 37.785156 146.507812 39.257812 147.980469 40.730469 C 148.980469 41.730469 149.984375 42.730469 150.984375 43.738281 C 151.113281 43.867188 151.332031 43.972656 151.214844 44.257812 C 150.527344 44.273438 149.847656 44.378906 149.136719 44.203125 C 148.769531 43.992188 148.484375 43.742188 148.210938 43.46875 C 146.632812 41.878906 145.042969 40.296875 143.460938 38.710938 C 143.375 38.625 143.304688 38.539062 143.148438 38.507812 C 142.945312 37.769531 143.007812 37.027344 143.007812 36.246094 Z M 143.007812 36.246094 "/>
<path style=" stroke:none;fill-rule:nonzero;fill:rgb(49.411765%,32.156863%,9.803922%);fill-opacity:1;" d="M 169.113281 35.890625 C 166.289062 33.082031 163.496094 30.28125 160.699219 27.476562 C 160.089844 26.867188 160.089844 26.867188 160.683594 26.230469 C 160.871094 26.0625 161.023438 26.074219 161.171875 26.246094 C 161.304688 26.394531 161.453125 26.527344 161.59375 26.667969 C 164.710938 29.789062 167.828125 32.910156 170.957031 36.058594 C 170.535156 36.425781 170.078125 36.210938 169.632812 36.117188 C 169.515625 36.089844 169.398438 36.007812 169.238281 35.929688 C 169.179688 35.90625 169.160156 35.902344 169.113281 35.890625 Z M 169.113281 35.890625 "/>
<path style=" stroke:none;fill-rule:nonzero;fill:rgb(50.196078%,39.607843%,2.745098%);fill-opacity:1;" d="M 175.207031 22.570312 C 174.949219 22.847656 174.6875 23.101562 174.40625 23.386719 C 174.386719 23.414062 174.347656 23.410156 174.332031 23.410156 C 173.238281 22.207031 172.050781 21.105469 170.914062 19.960938 C 168.839844 17.867188 166.746094 15.789062 164.667969 13.695312 C 164.589844 13.617188 164.246094 13.550781 164.570312 13.316406 C 164.664062 13.332031 164.726562 13.375 164.789062 13.367188 C 165.890625 13.289062 166.605469 13.90625 167.328125 14.644531 C 169.910156 17.28125 172.539062 19.871094 175.179688 22.496094 C 175.207031 22.511719 175.207031 22.550781 175.207031 22.570312 Z M 175.207031 22.570312 "/>
<path style=" stroke:none;fill-rule:nonzero;fill:rgb(51.372549%,51.764706%,52.941176%);fill-opacity:1;" d="M 183.726562 7.375 C 183.15625 6.804688 182.609375 6.257812 182.066406 5.710938 C 182.085938 5.675781 182.105469 5.636719 182.125 5.597656 C 182.601562 5.597656 183.074219 5.605469 183.550781 5.597656 C 183.710938 5.59375 183.78125 5.714844 183.871094 5.804688 C 186.546875 8.476562 189.21875 11.152344 191.894531 13.828125 C 192.121094 14.054688 192.027344 15.074219 191.773438 15.253906 C 191.679688 15.320312 191.625 15.265625 191.566406 15.210938 C 191.46875 15.117188 191.375 15.023438 191.28125 14.929688 C 188.769531 12.417969 186.261719 9.910156 183.726562 7.375 Z M 183.726562 7.375 "/>
<path style=" stroke:none;fill-rule:nonzero;fill:rgb(50.980392%,51.372549%,52.54902%);fill-opacity:1;" d="M 165.148438 35.363281 C 165.207031 35.390625 165.226562 35.394531 165.277344 35.410156 C 167.582031 37.703125 169.859375 39.992188 172.136719 42.277344 C 172.78125 42.921875 173.433594 43.558594 174.1875 44.304688 C 173.203125 44.253906 172.40625 44.3125 171.699219 43.582031 C 168.972656 40.777344 166.183594 38.035156 163.40625 35.238281 C 163.835938 34.777344 164.300781 35.109375 164.757812 35.175781 C 164.875 35.195312 164.988281 35.289062 165.148438 35.363281 Z M 165.148438 35.363281 "/>
<path style=" stroke:none;fill-rule:nonzero;fill:rgb(98.823529%,86.666667%,14.509804%);fill-opacity:1;" d="M 176.632812 10.316406 C 176.53125 9.964844 176.207031 9.824219 176.003906 9.601562 C 175.398438 8.9375 174.707031 8.351562 174.078125 7.707031 C 173.527344 7.140625 172.996094 6.5625 172.40625 6.03125 C 172.34375 5.976562 172.335938 5.855469 172.296875 5.726562 C 172.675781 5.5 173.085938 5.628906 173.480469 5.605469 C 173.921875 5.582031 174.367188 5.601562 174.855469 5.609375 C 175.34375 5.832031 175.65625 6.203125 175.996094 6.542969 C 176.707031 7.257812 177.433594 7.964844 178.144531 8.734375 C 178.199219 9.070312 178.351562 9.304688 178.574219 9.523438 C 179.53125 10.464844 180.464844 11.425781 181.425781 12.363281 C 181.667969 12.601562 181.867188 12.855469 181.984375 13.210938 C 181.992188 13.242188 181.996094 13.269531 182.007812 13.277344 C 181.980469 13.496094 182.042969 13.722656 181.890625 13.945312 C 181.558594 14.105469 181.398438 13.84375 181.222656 13.667969 C 180.125 12.578125 179.03125 11.484375 177.9375 10.394531 C 177.484375 9.941406 177.484375 9.941406 176.945312 10.265625 C 176.859375 10.316406 176.769531 10.351562 176.632812 10.316406 Z M 176.632812 10.316406 "/>
<path style=" stroke:none;fill-rule:nonzero;fill:rgb(50.980392%,51.372549%,52.54902%);fill-opacity:1;" d="M 167.996094 35.683594 C 168.082031 35.730469 168.128906 35.757812 168.203125 35.792969 C 168.277344 35.996094 168.445312 36.089844 168.570312 36.214844 C 171.007812 38.65625 173.445312 41.09375 175.886719 43.53125 C 176.015625 43.660156 176.167969 43.761719 176.316406 43.878906 C 175.992188 44.160156 175.648438 44.101562 175.351562 44.1875 C 175.09375 44.261719 174.828125 44.203125 174.589844 43.964844 C 171.8125 41.160156 169.015625 38.371094 166.210938 35.550781 C 166.578125 35.179688 167 35.402344 167.402344 35.449219 C 167.59375 35.472656 167.773438 35.582031 167.996094 35.683594 Z M 167.996094 35.683594 "/>
<path style=" stroke:none;fill-rule:nonzero;fill:rgb(50.980392%,40.392157%,2.745098%);fill-opacity:1;" d="M 176.496094 21.332031 C 176.21875 21.59375 175.949219 21.835938 175.652344 22.089844 C 175.25 21.746094 174.875 21.394531 174.507812 21.03125 C 172.222656 18.746094 169.9375 16.460938 167.652344 14.175781 C 167.527344 14.046875 167.40625 13.917969 167.308594 13.738281 C 168.136719 13.828125 168.957031 13.726562 169.652344 14.445312 C 171.722656 16.589844 173.855469 18.675781 175.964844 20.78125 C 176.117188 20.933594 176.285156 21.070312 176.480469 21.21875 C 176.515625 21.25 176.515625 21.28125 176.496094 21.332031 Z M 176.496094 21.332031 "/>
<path style=" stroke:none;fill-rule:nonzero;fill:rgb(48.627451%,30.980392%,10.980392%);fill-opacity:1;" d="M 168.015625 35.675781 C 167.441406 35.714844 166.863281 35.597656 166.238281 35.519531 C 166.179688 35.515625 166.160156 35.511719 166.117188 35.496094 C 165.960938 35.339844 165.839844 35.183594 165.699219 35.042969 C 163.53125 32.871094 161.355469 30.703125 159.191406 28.527344 C 159.046875 28.382812 158.75 28.265625 158.984375 27.929688 C 159.613281 27.253906 159.613281 27.253906 160.285156 27.925781 C 162.855469 30.5 165.425781 33.074219 168.015625 35.675781 Z M 168.015625 35.675781 "/>
<path style=" stroke:none;fill-rule:nonzero;fill:rgb(51.372549%,51.764706%,52.941176%);fill-opacity:1;" d="M 169.210938 35.9375 C 169.761719 35.96875 170.328125 36.03125 170.933594 36.089844 C 170.992188 36.09375 171.015625 36.097656 171.070312 36.113281 C 173.335938 38.359375 175.570312 40.597656 177.800781 42.832031 C 178.132812 43.167969 178.089844 43.292969 177.660156 43.492188 C 177.164062 43.726562 176.839844 43.621094 176.445312 43.21875 C 174.058594 40.78125 171.636719 38.382812 169.210938 35.9375 Z M 169.210938 35.9375 "/>
<path style=" stroke:none;fill-rule:nonzero;fill:rgb(52.54902%,52.54902%,54.117647%);fill-opacity:1;" d="M 162.46875 35.214844 C 162.507812 35.21875 162.546875 35.214844 162.566406 35.214844 C 165.402344 38.011719 168.21875 40.8125 171.035156 43.613281 C 171.003906 43.648438 170.976562 43.6875 170.949219 43.726562 C 170.417969 43.550781 169.921875 43.289062 169.445312 42.996094 C 168.585938 42.46875 167.851562 41.804688 167.25 40.996094 C 167.15625 40.871094 167.101562 40.699219 166.945312 40.910156 C 166.695312 41.246094 166.546875 41.011719 166.367188 40.835938 C 164.816406 39.28125 163.261719 37.730469 161.695312 36.148438 C 161.660156 35.589844 162.003906 35.367188 162.46875 35.214844 Z M 162.46875 35.214844 "/>
<path style=" stroke:none;fill-rule:nonzero;fill:rgb(50.980392%,51.372549%,52.54902%);fill-opacity:1;" d="M 191.273438 12.425781 C 189.011719 10.167969 186.777344 7.929688 184.445312 5.601562 C 185.0625 5.601562 185.5625 5.601562 186.066406 5.601562 C 186.222656 5.601562 186.292969 5.734375 186.382812 5.824219 C 188.277344 7.714844 190.171875 9.613281 192.070312 11.503906 C 192.238281 11.667969 192.316406 11.832031 192.304688 12.066406 C 192.285156 12.492188 192.300781 12.921875 192.300781 13.464844 C 191.917969 13.078125 191.609375 12.765625 191.273438 12.425781 Z M 191.273438 12.425781 "/>
<path style=" stroke:none;fill-rule:nonzero;fill:rgb(48.627451%,30.196078%,12.156863%);fill-opacity:1;" d="M 165.171875 35.355469 C 164.617188 35.324219 164.046875 35.261719 163.433594 35.203125 C 163.3125 35.175781 163.230469 35.144531 163.121094 35.101562 C 162.261719 34.246094 161.441406 33.398438 160.609375 32.558594 C 159.671875 31.613281 158.734375 30.664062 157.777344 29.738281 C 157.507812 29.480469 157.46875 29.296875 157.789062 29.042969 C 158.453125 28.609375 158.453125 28.609375 159.007812 29.164062 C 161.058594 31.21875 163.109375 33.273438 165.171875 35.355469 Z M 165.171875 35.355469 "/>
<path style=" stroke:none;fill-rule:nonzero;fill:rgb(50.980392%,40.392157%,2.745098%);fill-opacity:1;" d="M 177.6875 19.992188 C 177.464844 20.289062 177.226562 20.558594 176.96875 20.855469 C 176.925781 20.902344 176.898438 20.914062 176.84375 20.914062 C 176.785156 20.675781 176.578125 20.566406 176.429688 20.417969 C 174.34375 18.3125 172.25 16.210938 170.140625 14.078125 C 170.136719 14.050781 170.15625 14.0625 170.15625 14.046875 C 171.507812 13.949219 172.464844 14.617188 173.363281 15.605469 C 174.734375 17.117188 176.226562 18.515625 177.6875 19.992188 Z M 177.6875 19.992188 "/>
<path style=" stroke:none;fill-rule:nonzero;fill:rgb(99.607843%,91.372549%,19.215686%);fill-opacity:1;" d="M 178.113281 8.804688 C 177.726562 8.6875 177.53125 8.386719 177.289062 8.140625 C 176.613281 7.460938 175.929688 6.785156 175.253906 6.101562 C 175.128906 5.972656 174.972656 5.867188 174.90625 5.648438 C 175.511719 5.609375 176.128906 5.546875 176.734375 5.613281 C 177.390625 5.6875 177.964844 6.054688 178.527344 6.390625 C 178.914062 6.617188 179.257812 6.910156 179.648438 7.195312 C 179.679688 7.210938 179.683594 7.253906 179.679688 7.273438 C 179.699219 7.417969 179.679688 7.53125 179.605469 7.625 C 179.441406 7.835938 179.539062 7.988281 179.695312 8.144531 C 180.058594 8.503906 180.414062 8.871094 180.785156 9.226562 C 181.097656 9.527344 181.363281 9.859375 181.578125 10.277344 C 181.601562 10.304688 181.601562 10.296875 181.597656 10.296875 C 181.613281 10.3125 181.628906 10.328125 181.664062 10.375 C 181.710938 10.460938 181.742188 10.519531 181.789062 10.605469 C 181.738281 10.875 181.945312 11.074219 181.894531 11.351562 C 181.585938 11.519531 181.433594 11.273438 181.265625 11.109375 C 180.632812 10.496094 180.007812 9.875 179.394531 9.242188 C 179.042969 8.878906 178.71875 8.507812 178.113281 8.804688 Z M 178.113281 8.804688 "/>
<path style=" stroke:none;fill-rule:nonzero;fill:rgb(49.803922%,36.470588%,5.882353%);fill-opacity:1;" d="M 171.410156 26.367188 C 171.152344 26.640625 170.890625 26.898438 170.609375 27.179688 C 170.589844 27.207031 170.546875 27.203125 170.523438 27.203125 C 169.542969 26.257812 168.582031 25.316406 167.625 24.371094 C 166.894531 23.648438 166.179688 22.902344 165.433594 22.195312 C 165.125 21.90625 165.039062 21.695312 165.421875 21.421875 C 165.554688 21.328125 165.65625 21.191406 165.789062 21.042969 C 166.070312 20.945312 166.191406 21.152344 166.339844 21.300781 C 168.011719 22.960938 169.679688 24.625 171.378906 26.300781 C 171.410156 26.3125 171.410156 26.351562 171.410156 26.367188 Z M 171.410156 26.367188 "/>
<path style=" stroke:none;fill-rule:nonzero;fill:rgb(49.411765%,29.803922%,13.333333%);fill-opacity:1;" d="M 162.488281 35.191406 C 162.246094 35.5 161.984375 35.78125 161.703125 36.089844 C 161.679688 36.117188 161.648438 36.113281 161.632812 36.113281 C 161.492188 35.847656 161.253906 35.683594 161.054688 35.484375 C 159.625 34.046875 158.1875 32.617188 156.753906 31.179688 C 156.160156 30.582031 156.222656 30.738281 156.730469 30.203125 C 156.777344 30.15625 156.820312 30.105469 156.882812 30.027344 C 157.082031 29.773438 157.21875 29.886719 157.375 30.046875 C 159.070312 31.753906 160.769531 33.457031 162.488281 35.191406 Z M 162.488281 35.191406 "/>
<path style=" stroke:none;fill-rule:nonzero;fill:rgb(49.803922%,35.294118%,7.058824%);fill-opacity:1;" d="M 168.898438 28.9375 C 168.5625 29.132812 168.367188 29.457031 168.050781 29.691406 C 166.273438 27.96875 164.523438 26.230469 162.78125 24.492188 C 162.726562 24.4375 162.714844 24.347656 162.679688 24.234375 C 162.726562 24.160156 162.777344 24.113281 162.832031 24.082031 C 163.070312 23.929688 163.226562 23.519531 163.460938 23.578125 C 163.730469 23.644531 163.941406 23.960938 164.164062 24.183594 C 165.574219 25.59375 166.984375 27.007812 168.398438 28.417969 C 168.539062 28.558594 168.695312 28.683594 168.878906 28.816406 C 168.917969 28.851562 168.914062 28.882812 168.898438 28.9375 Z M 168.898438 28.9375 "/>
<path style=" stroke:none;fill-rule:nonzero;fill:rgb(50.588235%,38.823529%,3.529412%);fill-opacity:1;" d="M 173.886719 23.792969 C 173.667969 24.089844 173.425781 24.359375 173.171875 24.65625 C 173.128906 24.703125 173.097656 24.714844 173.042969 24.714844 C 172.996094 24.492188 172.804688 24.390625 172.667969 24.253906 C 171.113281 22.6875 169.550781 21.128906 167.988281 19.570312 C 167.824219 19.40625 167.609375 19.253906 167.917969 18.996094 C 168.554688 18.433594 168.554688 18.433594 169.144531 19.023438 C 170.71875 20.601562 172.296875 22.183594 173.886719 23.792969 Z M 173.886719 23.792969 "/>
<path style=" stroke:none;fill-rule:nonzero;fill:rgb(47.058824%,27.45098%,12.54902%);fill-opacity:1;" d="M 155.613281 31.296875 C 155.867188 31.027344 156 31.242188 156.148438 31.390625 C 157.699219 32.9375 159.246094 34.488281 160.796875 36.035156 C 160.9375 36.171875 161.09375 36.292969 161.28125 36.421875 C 161.320312 36.453125 161.316406 36.484375 161.304688 36.539062 C 161.171875 36.972656 160.917969 37.246094 160.449219 37.324219 C 158.691406 35.609375 156.96875 33.898438 155.242188 32.191406 C 155.054688 32.003906 155.085938 31.855469 155.253906 31.6875 C 155.375 31.570312 155.484375 31.445312 155.613281 31.296875 Z M 155.613281 31.296875 "/>
<path style=" stroke:none;fill-rule:nonzero;fill:rgb(49.803922%,35.294118%,7.058824%);fill-opacity:1;" d="M 170.085938 27.589844 C 169.867188 27.890625 169.628906 28.160156 169.375 28.460938 C 169.328125 28.503906 169.300781 28.511719 169.242188 28.515625 C 169.191406 28.292969 169.003906 28.1875 168.867188 28.050781 C 167.367188 26.546875 165.863281 25.042969 164.359375 23.539062 C 163.882812 23.0625 163.882812 23.0625 164.363281 22.574219 C 164.433594 22.503906 164.5 22.429688 164.582031 22.328125 C 164.800781 22.238281 164.90625 22.382812 165.023438 22.5 C 166.707031 24.1875 168.386719 25.875 170.085938 27.589844 Z M 170.085938 27.589844 "/>
<path style=" stroke:none;fill-rule:nonzero;fill:rgb(50.588235%,38.823529%,3.529412%);fill-opacity:1;" d="M 172.695312 25.132812 C 172.417969 25.394531 172.148438 25.636719 171.851562 25.890625 C 170.09375 24.191406 168.367188 22.472656 166.632812 20.761719 C 166.332031 20.464844 166.636719 20.339844 166.785156 20.128906 C 167.152344 19.648438 167.410156 19.800781 167.757812 20.160156 C 169.21875 21.664062 170.714844 23.136719 172.199219 24.617188 C 172.339844 24.757812 172.496094 24.882812 172.679688 25.015625 C 172.714844 25.050781 172.714844 25.082031 172.695312 25.132812 Z M 172.695312 25.132812 "/>
<path style=" stroke:none;fill-rule:nonzero;fill:rgb(49.411765%,32.156863%,9.803922%);fill-opacity:1;" d="M 167.613281 30.167969 C 167.351562 30.441406 167.09375 30.699219 166.808594 30.980469 C 166.789062 31.007812 166.75 31.007812 166.730469 31.007812 C 165.09375 29.378906 163.476562 27.75 161.859375 26.121094 C 161.371094 25.632812 161.457031 25.167969 162.082031 24.867188 C 162.332031 24.746094 162.410156 24.976562 162.519531 25.089844 C 164.070312 26.625 165.609375 28.167969 167.148438 29.707031 C 167.28125 29.839844 167.414062 29.960938 167.578125 30.101562 C 167.609375 30.113281 167.609375 30.152344 167.613281 30.167969 Z M 167.613281 30.167969 "/>
<path style=" stroke:none;fill-rule:nonzero;fill:rgb(50.980392%,40.392157%,2.745098%);fill-opacity:1;" d="M 179.007812 18.769531 C 178.746094 19.046875 178.488281 19.300781 178.207031 19.585938 C 178.183594 19.613281 178.148438 19.609375 178.132812 19.609375 C 177.558594 18.925781 176.890625 18.347656 176.273438 17.71875 C 175.257812 16.6875 174.246094 15.652344 173.195312 14.652344 C 172.824219 14.300781 172.753906 14.046875 173.199219 13.738281 C 173.265625 13.691406 173.3125 13.621094 173.386719 13.53125 C 173.660156 13.292969 173.785156 13.527344 173.929688 13.667969 C 175.605469 15.335938 177.277344 17.007812 178.980469 18.695312 C 179.007812 18.710938 179.003906 18.75 179.007812 18.769531 Z M 179.007812 18.769531 "/>
<path style=" stroke:none;fill-rule:nonzero;fill:rgb(50.588235%,42.745098%,5.490196%);fill-opacity:1;" d="M 175.316406 11.640625 C 175.332031 11.589844 175.359375 11.570312 175.382812 11.550781 C 176.15625 10.816406 176.15625 10.816406 176.929688 11.585938 C 178.359375 13.015625 179.792969 14.441406 181.257812 15.878906 C 181.289062 15.890625 181.304688 15.933594 181.308594 15.957031 C 181.109375 16.300781 180.910156 16.621094 180.695312 16.96875 C 180.679688 17 180.644531 17.007812 180.628906 17.007812 C 179.222656 15.609375 177.835938 14.207031 176.445312 12.804688 C 176.074219 12.429688 175.703125 12.046875 175.316406 11.640625 Z M 175.316406 11.640625 "/>
<path style=" stroke:none;fill-rule:nonzero;fill:rgb(46.27451%,25.490196%,12.54902%);fill-opacity:1;" d="M 154.429688 32.71875 C 154.605469 32.355469 154.769531 32.527344 154.933594 32.691406 C 155.578125 33.335938 156.222656 33.984375 156.871094 34.628906 C 157.894531 35.648438 158.921875 36.667969 159.980469 37.699219 C 160.011719 37.714844 160.011719 37.75 160.011719 37.765625 C 159.945312 38.222656 159.667969 38.472656 159.226562 38.605469 C 159.191406 38.605469 159.148438 38.605469 159.128906 38.605469 C 157.609375 37.09375 156.109375 35.582031 154.609375 34.066406 C 153.921875 33.371094 153.976562 33.5625 154.429688 32.71875 Z M 154.429688 32.71875 "/>
<path style=" stroke:none;fill-rule:nonzero;fill:rgb(72.941176%,21.176471%,17.647059%);fill-opacity:1;" d="M 143.121094 38.535156 C 143.242188 38.335938 143.367188 38.3125 143.523438 38.472656 C 145.363281 40.324219 147.203125 42.175781 149.042969 44.027344 C 149.066406 44.050781 149.070312 44.089844 149.09375 44.152344 C 148.257812 44.164062 147.515625 43.816406 146.800781 43.433594 C 145.558594 42.765625 144.601562 41.800781 143.902344 40.566406 C 143.546875 39.9375 143.324219 39.261719 143.121094 38.535156 Z M 143.121094 38.535156 "/>
<path style=" stroke:none;fill-rule:nonzero;fill:rgb(50.980392%,51.372549%,52.54902%);fill-opacity:1;" d="M 160.414062 37.335938 C 160.6875 37.074219 160.960938 36.832031 161.265625 36.574219 C 162.945312 38.230469 164.59375 39.898438 166.261719 41.582031 C 166 41.824219 165.707031 42.09375 165.425781 42.355469 C 163.792969 40.730469 162.128906 39.074219 160.441406 37.398438 C 160.414062 37.382812 160.410156 37.351562 160.414062 37.335938 Z M 160.414062 37.335938 "/>
<path style=" stroke:none;fill-rule:nonzero;fill:rgb(50.980392%,51.372549%,52.54902%);fill-opacity:1;" d="M 159.203125 38.636719 C 159.445312 38.347656 159.703125 38.085938 159.984375 37.804688 C 161.648438 39.457031 163.289062 41.132812 164.914062 42.792969 C 164.636719 42.957031 164.304688 43.390625 163.964844 43.328125 C 163.636719 43.269531 163.378906 42.828125 163.097656 42.546875 C 161.800781 41.253906 160.511719 39.960938 159.203125 38.636719 Z M 159.203125 38.636719 "/>
<path style=" stroke:none;fill-rule:nonzero;fill:rgb(50.588235%,44.313725%,7.058824%);fill-opacity:1;" d="M 176.601562 10.335938 C 176.628906 10.285156 176.660156 10.269531 176.683594 10.246094 C 177.425781 9.566406 177.425781 9.566406 178.15625 10.296875 C 179.378906 11.515625 180.605469 12.738281 181.855469 13.972656 C 181.890625 14.003906 181.898438 14.023438 181.910156 14.070312 C 181.824219 14.496094 181.753906 14.898438 181.539062 15.292969 C 179.902344 13.714844 178.285156 12.109375 176.671875 10.5 C 176.640625 10.46875 176.628906 10.414062 176.601562 10.335938 Z M 176.601562 10.335938 "/>
<path style=" stroke:none;fill-rule:nonzero;fill:rgb(45.098039%,23.921569%,11.764706%);fill-opacity:1;" d="M 157.832031 39.914062 C 157.386719 39.332031 156.832031 38.878906 156.332031 38.367188 C 155.519531 37.53125 154.707031 36.691406 153.851562 35.898438 C 153.453125 35.53125 153.324219 35.171875 153.539062 34.679688 C 153.578125 34.589844 153.59375 34.488281 153.632812 34.351562 C 153.855469 33.976562 153.972656 34.304688 154.074219 34.402344 C 155.601562 35.921875 157.125 37.449219 158.671875 39 C 158.6875 39.523438 158.375 39.761719 157.917969 39.914062 C 157.878906 39.917969 157.847656 39.914062 157.832031 39.914062 Z M 157.832031 39.914062 "/>
<path style=" stroke:none;fill-rule:nonzero;fill:rgb(51.372549%,51.764706%,52.941176%);fill-opacity:1;" d="M 157.894531 39.945312 C 158.140625 39.640625 158.40625 39.363281 158.679688 39.054688 C 158.707031 39.023438 158.726562 39.019531 158.765625 39.015625 C 158.792969 39.222656 158.972656 39.320312 159.09375 39.445312 C 160.414062 40.765625 161.726562 42.089844 163.054688 43.398438 C 163.308594 43.652344 163.238281 43.691406 162.941406 43.816406 C 162.300781 44.089844 161.851562 43.988281 161.355469 43.453125 C 160.25 42.253906 159.0625 41.132812 157.894531 39.945312 Z M 157.894531 39.945312 "/>
<path style=" stroke:none;fill-rule:nonzero;fill:rgb(43.529412%,21.960784%,11.372549%);fill-opacity:1;" d="M 153.300781 37.730469 C 153.289062 37.230469 153.289062 36.761719 153.289062 36.242188 C 153.953125 36.707031 154.480469 37.355469 155.085938 37.925781 C 155.882812 38.679688 156.601562 39.515625 157.480469 40.222656 C 157.519531 40.253906 157.515625 40.285156 157.503906 40.339844 C 157.375 40.773438 157.117188 41.042969 156.648438 41.125 C 155.492188 40.023438 154.332031 38.964844 153.300781 37.730469 Z M 153.300781 37.730469 "/>
<path style=" stroke:none;fill-rule:nonzero;fill:rgb(50.980392%,46.27451%,9.411765%);fill-opacity:1;" d="M 178.070312 8.832031 C 178.726562 8.308594 178.726562 8.308594 179.316406 8.898438 C 180.152344 9.726562 180.988281 10.554688 181.859375 11.386719 C 181.925781 11.4375 181.957031 11.476562 182 11.546875 C 182.011719 12.09375 182.007812 12.617188 182 13.191406 C 180.6875 11.945312 179.382812 10.644531 178.066406 9.355469 C 177.878906 9.167969 177.878906 9.027344 178.070312 8.832031 Z M 178.070312 8.832031 "/>
<path style=" stroke:none;fill-rule:nonzero;fill:rgb(50.980392%,51.372549%,52.54902%);fill-opacity:1;" d="M 156.613281 41.132812 C 156.886719 40.875 157.160156 40.628906 157.464844 40.375 C 158.707031 41.589844 159.917969 42.816406 161.1875 44.101562 C 160.644531 44.101562 160.15625 44.097656 159.664062 44.105469 C 159.503906 44.109375 159.4375 43.992188 159.347656 43.902344 C 158.453125 43.007812 157.558594 42.113281 156.640625 41.199219 C 156.613281 41.179688 156.613281 41.148438 156.613281 41.132812 Z M 156.613281 41.132812 "/>
<path style=" stroke:none;fill-rule:nonzero;fill:rgb(52.54902%,52.54902%,54.117647%);fill-opacity:1;" d="M 191.265625 9.933594 C 189.832031 8.5 188.421875 7.09375 186.972656 5.648438 C 187.601562 5.492188 188.082031 5.746094 188.53125 6.007812 C 189.894531 6.804688 190.960938 7.886719 191.625 9.34375 C 191.808594 9.75 191.917969 10.171875 192.074219 10.578125 C 192.023438 10.621094 191.972656 10.664062 191.925781 10.707031 C 191.714844 10.457031 191.503906 10.207031 191.265625 9.933594 Z M 191.265625 9.933594 "/>
<path style=" stroke:none;fill-rule:nonzero;fill:rgb(43.529412%,21.960784%,11.372549%);fill-opacity:1;" d="M 154.625 41.101562 C 154.246094 40.480469 153.828125 39.902344 153.722656 39.125 C 154.53125 39.914062 155.339844 40.703125 156.179688 41.503906 C 156.210938 41.515625 156.214844 41.550781 156.214844 41.566406 C 156.1875 41.910156 156.027344 42.113281 155.648438 42.144531 C 155.394531 41.9375 155.179688 41.730469 154.9375 41.507812 C 154.800781 41.480469 154.761719 41.402344 154.71875 41.285156 C 154.6875 41.207031 154.667969 41.164062 154.625 41.101562 Z M 154.625 41.101562 "/>
<path style=" stroke:none;fill-rule:nonzero;fill:rgb(52.54902%,52.54902%,54.117647%);fill-opacity:1;" d="M 155.609375 42.148438 C 155.792969 41.96875 155.976562 41.796875 156.1875 41.601562 C 156.890625 42.285156 157.5625 42.992188 158.25 43.714844 C 157.242188 43.464844 156.429688 42.882812 155.640625 42.191406 C 155.613281 42.171875 155.613281 42.15625 155.609375 42.148438 Z M 155.609375 42.148438 "/>
<path style=" stroke:none;fill-rule:nonzero;fill:rgb(62.745098%,62.745098%,63.529412%);fill-opacity:1;" d="M 58.554688 21.132812 C 58.597656 25.40625 58.597656 29.699219 58.597656 34.039062 C 58.417969 34.007812 58.503906 33.851562 58.503906 33.738281 C 58.5 29.589844 58.5 25.445312 58.5 21.296875 C 58.5 21.25 58.511719 21.199219 58.554688 21.132812 Z M 58.554688 21.132812 "/>
<path style=" stroke:none;fill-rule:nonzero;fill:rgb(62.745098%,62.745098%,63.529412%);fill-opacity:1;" d="M 94.441406 33.992188 C 94.402344 29.746094 94.402344 25.476562 94.402344 21.160156 C 94.578125 21.191406 94.496094 21.347656 94.496094 21.460938 C 94.5 25.5625 94.5 29.664062 94.5 33.769531 C 94.5 33.832031 94.484375 33.898438 94.441406 33.992188 Z M 94.441406 33.992188 "/>
<path style=" stroke:none;fill-rule:nonzero;fill:rgb(95.294118%,57.647059%,23.529412%);fill-opacity:1;" d="M 28.492188 23.851562 C 28.664062 23.984375 28.601562 24.210938 28.601562 24.421875 C 28.609375 27.613281 28.609375 30.804688 28.621094 34.042969 C 28.382812 33.988281 28.503906 33.777344 28.503906 33.625 C 28.496094 30.382812 28.496094 27.140625 28.492188 23.851562 Z M 28.492188 23.851562 "/>
<path style=" stroke:none;fill-rule:nonzero;fill:rgb(62.745098%,62.745098%,63.529412%);fill-opacity:1;" d="M 114.539062 33.992188 C 114.503906 31.769531 114.5 29.519531 114.5 27.269531 C 114.5 27.140625 114.527344 27.007812 114.5625 26.839844 C 114.582031 29.195312 114.578125 31.578125 114.539062 33.992188 Z M 114.539062 33.992188 "/>
<path style=" stroke:none;fill-rule:nonzero;fill:rgb(95.294118%,57.647059%,23.529412%);fill-opacity:1;" d="M 150.089844 13.253906 C 149.734375 13.292969 149.359375 13.296875 148.933594 13.296875 C 149.269531 13.09375 149.671875 13.222656 150.089844 13.253906 Z M 150.089844 13.253906 "/>
<path style=" stroke:none;fill-rule:nonzero;fill:rgb(62.745098%,62.745098%,63.529412%);fill-opacity:1;" d="M 49.113281 29.9375 C 49.433594 29.902344 49.773438 29.902344 50.160156 29.902344 C 49.863281 30.097656 49.492188 29.972656 49.113281 29.9375 Z M 49.113281 29.9375 "/>
<path style=" stroke:none;fill-rule:nonzero;fill:rgb(62.745098%,62.745098%,63.529412%);fill-opacity:1;" d="M 66.339844 22.789062 C 66.300781 22.5 66.300781 22.191406 66.300781 21.835938 C 66.5 22.101562 66.371094 22.4375 66.339844 22.789062 Z M 66.339844 22.789062 "/>
<path style=" stroke:none;fill-rule:nonzero;fill:rgb(62.745098%,62.745098%,63.529412%);fill-opacity:1;" d="M 112.792969 20.960938 C 112.632812 20.996094 112.457031 21 112.234375 21 C 112.367188 20.8125 112.578125 20.914062 112.792969 20.960938 Z M 112.792969 20.960938 "/>
<path style=" stroke:none;fill-rule:nonzero;fill:rgb(62.745098%,62.745098%,63.529412%);fill-opacity:1;" d="M 48.789062 31.863281 C 48.628906 31.882812 48.449219 31.871094 48.238281 31.835938 C 48.394531 31.816406 48.582031 31.824219 48.789062 31.863281 Z M 48.789062 31.863281 "/>
<path style=" stroke:none;fill-rule:nonzero;fill:rgb(62.745098%,62.745098%,63.529412%);fill-opacity:1;" d="M 48.007812 40.238281 C 48.136719 40.214844 48.285156 40.230469 48.464844 40.265625 C 48.335938 40.28125 48.179688 40.277344 48.007812 40.238281 Z M 48.007812 40.238281 "/>
<path style=" stroke:none;fill-rule:nonzero;fill:rgb(95.294118%,57.647059%,23.529412%);fill-opacity:1;" d="M 35.609375 30.039062 C 35.722656 30.132812 35.699219 30.289062 35.699219 30.476562 C 35.511719 30.40625 35.632812 30.226562 35.609375 30.039062 Z M 35.609375 30.039062 "/>
<path style=" stroke:none;fill-rule:nonzero;fill:rgb(95.294118%,57.647059%,23.529412%);fill-opacity:1;" d="M 42.238281 23.300781 C 42.214844 23.164062 42.226562 23.011719 42.261719 22.828125 C 42.28125 22.957031 42.277344 23.121094 42.238281 23.300781 Z M 42.238281 23.300781 "/>
<path style=" stroke:none;fill-rule:nonzero;fill:rgb(51.372549%,51.764706%,52.941176%);fill-opacity:1;" d="M 183.25 35.753906 C 183.304688 35.777344 183.398438 35.800781 183.339844 35.878906 C 183.324219 35.898438 183.253906 35.871094 183.199219 35.839844 C 183.203125 35.800781 183.214844 35.785156 183.25 35.753906 Z M 183.25 35.753906 "/>
<path style=" stroke:none;fill-rule:nonzero;fill:rgb(0%,0%,0%);fill-opacity:1;" d="M 49.148438 37.730469 C 48.617188 37.683594 48.148438 37.617188 47.675781 37.4375 C 46.632812 37.035156 46.609375 35.8125 47.109375 35.15625 C 47.464844 34.695312 47.933594 34.480469 48.523438 34.496094 C 49.289062 34.515625 50.054688 34.484375 50.820312 34.503906 C 51.195312 34.515625 51.574219 34.554688 51.941406 34.632812 C 52.519531 34.757812 52.839844 35.113281 52.898438 35.601562 C 52.972656 36.234375 52.691406 36.816406 52.171875 37.101562 C 51.457031 37.492188 50.699219 37.714844 49.835938 37.710938 C 49.59375 37.78125 49.390625 37.742188 49.148438 37.730469 Z M 49.148438 37.730469 "/>
<path style=" stroke:none;fill-rule:nonzero;fill:rgb(0%,0%,0%);fill-opacity:1;" d="M 47.71875 24.671875 C 48.171875 22.984375 49.804688 22.859375 50.777344 23.394531 C 51.460938 23.773438 51.824219 25.03125 51.667969 25.84375 C 51.542969 26.515625 51.34375 27.179688 50.648438 27.464844 C 49.320312 28.003906 47.691406 27.460938 47.703125 25.613281 C 47.707031 25.3125 47.707031 25.011719 47.71875 24.671875 Z M 47.71875 24.671875 "/>
<path style=" stroke:none;fill-rule:nonzero;fill:rgb(62.745098%,62.745098%,63.529412%);fill-opacity:1;" d="M 49.136719 37.738281 C 49.308594 37.710938 49.507812 37.707031 49.75 37.710938 C 49.589844 37.839844 49.378906 37.816406 49.136719 37.738281 Z M 49.136719 37.738281 "/>
<path style=" stroke:none;fill-rule:nonzero;fill:rgb(0%,0%,0%);fill-opacity:1;" d="M 104.832031 28.152344 C 104.785156 29.113281 104.613281 29.992188 104.074219 30.765625 C 103.730469 31.257812 103.273438 31.546875 102.632812 31.609375 C 102.394531 31.679688 102.191406 31.640625 101.945312 31.628906 C 100.628906 31.441406 100.175781 30.828125 99.824219 29.597656 C 99.445312 28.269531 99.5 26.890625 99.839844 25.558594 C 100.328125 23.628906 101.898438 23.160156 103.429688 23.898438 C 104.253906 24.296875 104.519531 25.121094 104.6875 25.945312 C 104.75 26.261719 104.871094 26.582031 104.808594 26.960938 C 104.886719 27.371094 104.835938 27.738281 104.832031 28.152344 Z M 104.832031 28.152344 "/>
<path style=" stroke:none;fill-rule:nonzero;fill:rgb(62.745098%,62.745098%,63.529412%);fill-opacity:1;" d="M 104.835938 28.160156 C 104.8125 27.828125 104.808594 27.460938 104.808594 27.050781 C 104.960938 27.375 104.910156 27.75 104.835938 28.160156 Z M 104.835938 28.160156 "/>
<path style=" stroke:none;fill-rule:nonzero;fill:rgb(62.745098%,62.745098%,63.529412%);fill-opacity:1;" d="M 101.9375 31.636719 C 102.105469 31.613281 102.308594 31.609375 102.550781 31.609375 C 102.390625 31.738281 102.179688 31.714844 101.9375 31.636719 Z M 101.9375 31.636719 "/>
<path style=" stroke:none;fill-rule:nonzero;fill:rgb(0%,0%,0%);fill-opacity:1;" d="M 71.246094 31.175781 C 70.628906 30.625 70.53125 29.945312 70.742188 29.246094 C 70.957031 28.535156 71.550781 28.234375 72.257812 28.097656 C 72.960938 27.960938 73.652344 27.96875 74.355469 28.09375 C 74.554688 28.128906 74.601562 28.199219 74.601562 28.375 C 74.597656 29.289062 74.589844 30.207031 74.605469 31.121094 C 74.609375 31.367188 74.460938 31.457031 74.292969 31.484375 C 73.261719 31.660156 72.242188 31.691406 71.246094 31.175781 Z M 71.246094 31.175781 "/>
<path style=" stroke:none;fill-rule:nonzero;fill:rgb(95.294118%,50.588235%,12.54902%);fill-opacity:1;" d="M 170.125 14.042969 C 170.121094 14.042969 170.132812 14.027344 170.132812 14.027344 C 170.132812 14.023438 170.132812 14.039062 170.125 14.042969 Z M 170.125 14.042969 "/>
<path style=" stroke:none;fill-rule:nonzero;fill:rgb(83.529412%,40.392157%,21.176471%);fill-opacity:1;" d="M 154.710938 41.289062 C 154.765625 41.3125 154.824219 41.375 154.894531 41.460938 C 154.707031 41.597656 154.71875 41.441406 154.710938 41.289062 Z M 154.710938 41.289062 "/>
<path style=" stroke:none;fill-rule:nonzero;fill:rgb(50.980392%,41.960784%,4.313725%);fill-opacity:1;" d="M 180.21875 17.460938 C 179.984375 17.75 179.734375 18.011719 179.453125 18.289062 C 177.699219 16.59375 175.976562 14.878906 174.246094 13.171875 C 174.058594 12.988281 174.0625 12.839844 174.257812 12.679688 C 174.285156 12.660156 174.304688 12.632812 174.328125 12.609375 C 174.847656 12.070312 174.847656 12.070312 175.363281 12.585938 C 176.976562 14.199219 178.585938 15.816406 180.21875 17.460938 Z M 180.21875 17.460938 "/>
<path style=" stroke:none;fill-rule:nonzero;fill:rgb(50.980392%,46.27451%,9.411765%);fill-opacity:1;" d="M 181.601562 10.265625 C 180.773438 9.597656 180.054688 8.777344 179.269531 8.03125 C 179.128906 7.898438 179.125 7.796875 179.269531 7.671875 C 179.394531 7.5625 179.507812 7.441406 179.652344 7.3125 C 180.621094 8.074219 181.25 9.0625 181.601562 10.265625 Z M 181.601562 10.265625 "/>
<path style=" stroke:none;fill-rule:nonzero;fill:rgb(50.980392%,46.27451%,9.411765%);fill-opacity:1;" d="M 181.675781 10.382812 C 181.648438 10.394531 181.625 10.375 181.601562 10.320312 C 181.628906 10.304688 181.652344 10.328125 181.675781 10.382812 Z M 181.675781 10.382812 "/>
</g>
</svg>
